#N canvas 540 237 266 249 10;
#X obj 49 30 inlet~;
#X obj 25 8 inlet~;
#X obj 72 52 inlet~;
#X obj 95 75 inlet~;
#X obj 140 118 inlet;
#X obj 27 211 outlet~;
#N canvas 109 180 436 139 @hv_obj 0;
#X obj 23 18 inlet~;
#X obj 23 88 outlet~;
#X obj 23 66 hv.biquad;
#X obj 262 18 inlet;
#X obj 87 18 inlet~;
#X obj 87 88 outlet~;
#X obj 87 66 hv.biquad;
#X obj 302 18 inlet;
#X obj 153 18 inlet~;
#X obj 153 88 outlet~;
#X obj 153 66 hv.biquad;
#X obj 341 18 inlet;
#X obj 214 18 inlet~;
#X obj 214 88 outlet~;
#X obj 214 66 hv.biquad;
#X obj 380 18 inlet;
#X connect 0 0 2 0;
#X connect 2 0 1 0;
#X connect 3 0 2 1;
#X connect 4 0 6 0;
#X connect 6 0 5 0;
#X connect 7 0 6 1;
#X connect 8 0 10 0;
#X connect 10 0 9 0;
#X connect 11 0 10 1;
#X connect 12 0 14 0;
#X connect 14 0 13 0;
#X connect 15 0 14 1;
#X restore 27 187 pd @hv_obj __biquadbank_k~f;
#X obj 117 96 inlet;
#X obj 163 139 inlet;
#X obj 186 161 inlet;
#X obj 133 211 outlet~;
#X obj 186 211 outlet~;
#X obj 80 211 outlet~;
#X connect 0 0 6 1;
#X connect 1 0 6 0;
#X connect 2 0 6 2;
#X connect 3 0 6 3;
#X connect 4 0 6 5;
#X connect 6 0 5 0;
#X connect 6 1 12 0;
#X connect 6 2 10 0;
#X connect 6 3 11 0;
#X connect 7 0 6 4;
#X connect 8 0 6 6;
#X connect 9 0 6 7;
