#N canvas 595 379 559 505 10;
#X obj 288 21 inlet~ freq;
#X obj 303 67 samplerate~;
#X obj 303 45 loadbang;
#X obj 303 89 sig~;
#X obj 288 110 /~;
#X obj 249 257 hv_lte~;
#X obj 461 257 hv_gte~;
#X obj 500 193 sig~ 1;
#X obj 500 235 -~;
#X obj 234 420 *~;
#X obj 446 420 *~;
#X obj 138 326 /~;
#X obj 138 348 +~;
#X obj 168 348 *~;
#X obj 138 370 -~;
#X obj 138 392 -~ 1;
#X obj 352 328 /~;
#X obj 352 350 +~;
#X obj 382 350 *~;
#X obj 352 286 -~ 1;
#X obj 352 372 +~;
#X obj 352 394 +~ 1;
#X obj 78 161 *~ 2;
#X obj 78 183 -~ 1;
#X obj 78 439 -~;
#X obj 138 110 phasor~;
#X obj 78 461 outlet~;
#X text 189 111 phase;
#X text 316 111 normalised freq;
#X text 16 172 sawtooth;
#X text 155 457 based on christian foisland's polyblep implementation:
https://github.com/cfloisand/pd-polyblep/blob/master/Source/polyblep~.c
;
#X connect 0 0 4 0;
#X connect 0 0 25 0;
#X connect 1 0 3 0;
#X connect 2 0 1 0;
#X connect 3 0 4 1;
#X connect 4 0 5 1;
#X connect 4 0 8 1;
#X connect 4 0 16 1;
#X connect 4 0 11 1;
#X connect 5 0 9 1;
#X connect 6 0 10 1;
#X connect 7 0 8 0;
#X connect 8 0 6 1;
#X connect 9 0 24 1;
#X connect 10 0 24 1;
#X connect 11 0 12 0;
#X connect 11 0 12 1;
#X connect 11 0 13 1;
#X connect 11 0 13 0;
#X connect 12 0 14 0;
#X connect 13 0 14 1;
#X connect 14 0 15 0;
#X connect 15 0 9 0;
#X connect 16 0 17 0;
#X connect 16 0 17 1;
#X connect 16 0 18 1;
#X connect 16 0 18 0;
#X connect 17 0 20 0;
#X connect 18 0 20 1;
#X connect 19 0 16 0;
#X connect 20 0 21 0;
#X connect 21 0 10 0;
#X connect 22 0 23 0;
#X connect 23 0 24 0;
#X connect 24 0 26 0;
#X connect 25 0 22 0;
#X connect 25 0 11 0;
#X connect 25 0 5 0;
#X connect 25 0 19 0;
#X connect 25 0 6 0;
