#N canvas 655 95 247 96 10;
#X obj 18 21 inlet~;
#X obj 153 21 inlet;
#X obj 18 67 outlet~;
#N canvas 860 239 226 252 @hv_obj 0;
#X obj 24 13 inlet~;
#X obj 34 37 inlet;
#X obj 24 207 outlet~;
#X obj 24 184 biquad~;
#X obj 34 61 unpack f f f f f, f 21;
#X obj 157 83 * -1;
#X obj 126 104 * -1;
#X obj 111 126 f;
#X obj 34 83 t b a;
#X obj 34 161 pack 1 0 0 0 0, f 21;
#X connect 0 0 3 0;
#X connect 1 0 4 0;
#X connect 3 0 2 0;
#X connect 4 0 8 0;
#X connect 4 1 9 3;
#X connect 4 2 9 4;
#X connect 4 3 6 0;
#X connect 4 4 5 0;
#X connect 5 0 9 1;
#X connect 6 0 7 1;
#X connect 7 0 9 0;
#X connect 8 0 7 0;
#X connect 8 1 9 2;
#X connect 9 0 3 0;
#X restore 18 44 pd @hv_obj __biquad_k~f;
#X connect 0 0 3 0;
#X connect 1 0 3 1;
#X connect 3 0 2 0;
