#N canvas 399 22 421 362 10;
#X obj 27 94 osc~ 440;
#X msg 134 139 threshold \$1;
#X floatatom 134 114 5 0 0 0 - - -, f 5;
#X obj 75 272 env~;
#X obj 27 273 env~;
#X obj 27 303 - 100;
#X floatatom 27 325 5 0 0 0 - - -, f 5;
#X obj 75 302 - 100;
#X floatatom 75 324 5 0 0 0 - - -, f 5;
#X floatatom 240 112 5 0 0 0 - - -, f 5;
#X msg 240 139 ratio \$1;
#X text 207 185 // arg \$1: threshold;
#X text 25 25 mono compressor \, static 40ms attack/release \, adjustable
threshold and ratio settings;
#X text 118 324 dB;
#X text 206 205 // arg \$2: ratio;
#X obj 75 185 hv.compressor 60 2;
#X connect 0 0 4 0;
#X connect 0 0 15 0;
#X connect 1 0 15 1;
#X connect 2 0 1 0;
#X connect 3 0 7 0;
#X connect 4 0 5 0;
#X connect 5 0 6 0;
#X connect 7 0 8 0;
#X connect 9 0 10 0;
#X connect 10 0 15 1;
#X connect 15 0 3 0;
