#N canvas 399 22 568 292 10;
#X obj 27 74 osc~ 440;
#X msg 268 130 threshold \$1;
#X floatatom 268 108 5 0 0 0 - - -, f 5;
#X obj 75 192 env~;
#X obj 27 193 env~;
#X obj 27 223 - 100;
#X floatatom 27 245 5 0 0 0 - - -, f 5;
#X obj 75 222 - 100;
#X floatatom 75 244 5 0 0 0 - - -, f 5;
#X floatatom 229 65 5 0 0 0 - - -, f 5;
#X msg 229 84 ratio \$1;
#X text 118 244 dB;
#X text 366 142 // arg \$2: ratio;
#X obj 75 165 hv.compressor.mhroth 60 2 40 40;
#X text 366 163 // arg \$1: attack (ms);
#X text 365 183 // arg \$2: release (ms);
#X text 368 120 // arg \$1: threshold (dBV+100);
#X text 25 25 mono compressor \, threshold \, ratio \, attack \, and
release settings;
#X connect 0 0 4 0;
#X connect 0 0 13 0;
#X connect 1 0 13 1;
#X connect 2 0 1 0;
#X connect 3 0 7 0;
#X connect 4 0 5 0;
#X connect 5 0 6 0;
#X connect 7 0 8 0;
#X connect 9 0 10 0;
#X connect 10 0 13 1;
#X connect 13 0 3 0;
