#N canvas 399 22 421 362 10;
#X text 25 25 stereo compressor \, static 40ms attack/release \, adjustable
threshold and ratio settings;
#X obj 27 94 osc~ 440;
#X msg 186 123 threshold \$1;
#X floatatom 186 98 5 0 0 0 - - -, f 5;
#X obj 75 272 env~;
#X obj 27 273 env~;
#X obj 27 303 - 100;
#X floatatom 27 325 5 0 0 0 - - -, f 5;
#X obj 75 302 - 100;
#X floatatom 75 324 5 0 0 0 - - -, f 5;
#X obj 186 270 env~;
#X obj 186 300 - 100;
#X floatatom 186 322 5 0 0 0 - - -, f 5;
#X floatatom 292 96 5 0 0 0 - - -, f 5;
#X msg 292 123 ratio \$1;
#X text 207 185 // arg \$1: threshold;
#X text 231 322 dB;
#X text 205 203 // arg \$2: ratio;
#X obj 75 185 hv.compressor2 60 2;
#X connect 1 0 5 0;
#X connect 1 0 18 0;
#X connect 1 0 18 1;
#X connect 2 0 18 2;
#X connect 3 0 2 0;
#X connect 4 0 8 0;
#X connect 5 0 6 0;
#X connect 6 0 7 0;
#X connect 8 0 9 0;
#X connect 10 0 11 0;
#X connect 11 0 12 0;
#X connect 13 0 14 0;
#X connect 14 0 18 2;
#X connect 18 0 4 0;
#X connect 18 1 10 0;
