#N canvas 269 23 450 451 10;
#X obj 258 236 inlet;
#X obj 46 149 r \$0-threshold;
#X obj 16 401 *~;
#X obj 16 14 inlet~ input;
#X obj 258 256 hv.dispatch \$0 ratio 1;
#X obj 258 277 hv.dispatch \$0 threshold 70;
#X obj 31 196 -~;
#X obj 31 218 max~ 0;
#X obj 31 378 exp~;
#X obj 42 239 r \$0-ratio;
#X obj 31 356 *~;
#X obj 46 173 - 100;
#X obj 42 262 t a a;
#X obj 54 307 /;
#X obj 42 285 - 1;
#X obj 54 331 * -0.115129;
#X obj 258 298 hv.dispatch \$0 attack 40;
#X obj 74 37 r \$0-attack;
#X obj 118 58 r \$0-release;
#X obj 16 425 outlet~;
#X text 76 218 hard knee at the threshold;
#N canvas 620 157 160 113 @hv_obj 0;
#X obj 16 9 inlet~;
#X obj 16 76 outlet~;
#X obj 16 54 log~;
#X obj 37 31 sig~ 2;
#X connect 0 0 2 0;
#X connect 2 0 1 0;
#X connect 3 0 2 1;
#X restore 31 104 pd @hv_obj __log2~f;
#X obj 31 126 *~ 6.0206;
#X obj 258 321 hv.dispatch \$0 release 40;
#X obj 260 191 f \$1;
#X obj 277 145 f \$2;
#X obj 260 10 loadbang;
#X obj 260 32 t a a a a;
#X obj 260 212 s \$0-threshold;
#X obj 277 167 s \$0-ratio;
#X obj 294 101 f \$3;
#X obj 310 56 f \$4;
#X obj 293 123 s \$0-attack;
#X obj 310 78 s \$0-relase;
#X obj 31 81 hv.envfollow.v2;
#X text 92 126 dBV of envelope;
#X text 58 196 compare env to threshold (dBV);
#X connect 0 0 4 0;
#X connect 1 0 11 0;
#X connect 2 0 19 0;
#X connect 3 0 2 0;
#X connect 3 0 34 0;
#X connect 4 0 5 0;
#X connect 5 0 16 0;
#X connect 6 0 7 0;
#X connect 7 0 10 0;
#X connect 8 0 2 1;
#X connect 9 0 12 0;
#X connect 10 0 8 0;
#X connect 11 0 6 1;
#X connect 12 0 14 0;
#X connect 12 1 13 1;
#X connect 13 0 15 0;
#X connect 14 0 13 0;
#X connect 15 0 10 1;
#X connect 16 0 23 0;
#X connect 17 0 34 1;
#X connect 18 0 34 2;
#X connect 21 0 22 0;
#X connect 22 0 6 0;
#X connect 24 0 28 0;
#X connect 25 0 29 0;
#X connect 26 0 27 0;
#X connect 27 0 24 0;
#X connect 27 1 25 0;
#X connect 27 2 30 0;
#X connect 27 3 31 0;
#X connect 30 0 32 0;
#X connect 31 0 33 0;
#X connect 34 0 21 0;
