#N canvas 399 22 577 852 10;
#X obj 160 408 t b f;
#X obj 61 468 f;
#X obj 61 498 /;
#X obj 61 438 -;
#X obj 16 362 f;
#X obj 150 320 t b f f;
#X obj 61 528 +;
#X obj 376 16 inlet;
#X obj 174 256 t b b;
#X obj 160 385 r \$0-ratio;
#X obj 150 190 r \$0-threshold;
#X obj 16 135 env~ 256;
#X obj 16 265 s \$0-inputlevel;
#X obj 16 295 r \$0-inputlevel;
#X obj 16 325 t f f;
#X obj 16 558 s \$0-outputlevel;
#N canvas 639 436 358 251 gainreduc 0;
#X obj 32 94 -;
#X obj 32 114 / 20;
#X obj 32 134 t b f;
#X msg 32 154 10;
#X obj 32 174 pow;
#X obj 32 34 inlet output;
#X obj 47 64 inlet input;
#X obj 32 206 outlet gain-reduction;
#X text 70 172 gr = 20*log10(output - input);
#X connect 0 0 1 0;
#X connect 1 0 2 0;
#X connect 2 0 3 0;
#X connect 2 1 4 1;
#X connect 3 0 4 0;
#X connect 4 0 7 0;
#X connect 5 0 0 0;
#X connect 6 0 0 1;
#X restore 151 668 pd gainreduc;
#X obj 151 648 r \$0-outputlevel;
#X obj 136 758 *~;
#X obj 151 732 line~;
#X text 93 498 Gain reduction;
#X obj 26 235 r \$0-graph-input;
#X obj 61 193 r \$0-switch;
#X obj 16 213 spigot 1;
#X obj 151 688 min 1;
#X obj 89 135 env~ 256;
#X obj 16 408 moses 70;
#X obj 76 408 t f f;
#X obj 16 173 max;
#X obj 16 48 s~ \$0-inputSignalLeft;
#X obj 155 48 s~ \$0-inputSignalRight;
#X obj 16 588 r~ \$0-inputSignalLeft;
#X obj 136 618 r~ \$0-inputSignalRight;
#X obj 16 758 *~;
#X obj 16 88 r~ \$0-inputSignalLeft;
#X obj 89 112 r~ \$0-inputSignalRight;
#X obj 136 788 outlet~ rightOutput;
#X obj 16 788 outlet~ leftOutput;
#X text 213 709 ms attack/release;
#X obj 155 16 inlet~ rightInput;
#X obj 16 14 inlet~ leftInput;
#X obj 174 286 f \$1;
#X obj 210 286 f \$2;
#X obj 174 234 loadbang;
#X msg 151 710 \$1 40;
#X obj 376 36 hv.dispatch \$0 ratio 1;
#X obj 376 56 hv.dispatch \$0 threshold 70;
#X connect 0 0 1 0;
#X connect 0 1 2 1;
#X connect 1 0 2 0;
#X connect 2 0 6 0;
#X connect 3 0 1 0;
#X connect 4 0 26 0;
#X connect 5 0 4 0;
#X connect 5 1 26 1;
#X connect 5 2 27 0;
#X connect 6 0 15 0;
#X connect 7 0 45 0;
#X connect 8 0 41 0;
#X connect 8 1 42 0;
#X connect 9 0 0 0;
#X connect 10 0 5 0;
#X connect 11 0 28 0;
#X connect 13 0 14 0;
#X connect 14 0 4 0;
#X connect 14 1 16 1;
#X connect 16 0 24 0;
#X connect 17 0 16 0;
#X connect 18 0 36 0;
#X connect 19 0 18 1;
#X connect 19 0 33 1;
#X connect 21 0 12 0;
#X connect 22 0 23 1;
#X connect 23 0 12 0;
#X connect 24 0 44 0;
#X connect 25 0 28 1;
#X connect 26 0 15 0;
#X connect 26 1 3 0;
#X connect 27 0 3 1;
#X connect 27 1 6 1;
#X connect 28 0 23 0;
#X connect 31 0 33 0;
#X connect 32 0 18 0;
#X connect 33 0 37 0;
#X connect 34 0 11 0;
#X connect 35 0 25 0;
#X connect 39 0 30 0;
#X connect 40 0 29 0;
#X connect 41 0 5 0;
#X connect 42 0 0 0;
#X connect 43 0 8 0;
#X connect 44 0 19 0;
#X connect 45 0 46 0;
