#N canvas 959 193 491 627 10;
#X obj 32 586 outlet~;
#X obj 32 29 inlet~;
#X obj 32 476 +~;
#X obj 282 29 inlet;
#X obj 257 461 *~;
#X obj 257 281 line~;
#X msg 272 395 \$1 10;
#X obj 272 417 line~;
#X obj 77 441 *~;
#X obj 77 282 line~;
#X obj 77 257 pack f f;
#X msg 92 395 \$1 10;
#X obj 92 417 line~;
#X obj 257 256 pack f f;
#X obj 32 531 -~;
#X obj 282 51 hv.dispatch \$0 feedfwd 0.5;
#X obj 92 343 r \$0-feedfwd;
#X obj 272 343 r \$0-feedback;
#X obj 257 181 r \$0-outdelay;
#X obj 77 182 r \$0-indelay;
#X obj 77 309 vd~ \$0-inputdelay;
#X obj 257 307 vd~ \$0-outputdelay;
#X obj 77 62 delwrite~ \$0-inputdelay 50;
#X obj 92 586 delwrite~ \$0-outputdelay 50;
#X obj 257 203 min 50;
#X obj 77 204 min 50;
#X obj 92 365 clip 0 0.999;
#X obj 272 365 clip 0 0.999;
#X obj 282 111 hv.dispatch \$0 outdelay 10;
#X obj 282 71 hv.dispatch \$0 indelay 20;
#X obj 171 203 clip 0 1000;
#X obj 171 225 t f f;
#X obj 282 91 hv.dispatch \$0 feedback 0.85;
#X obj 282 131 hv.dispatch \$0 slide 0.5;
#X obj 171 181 r \$0-slide;
#X connect 1 0 22 0;
#X connect 1 0 2 0;
#X connect 2 0 14 0;
#X connect 3 0 15 0;
#X connect 4 0 14 1;
#X connect 5 0 21 0;
#X connect 6 0 7 0;
#X connect 7 0 4 1;
#X connect 8 0 2 1;
#X connect 9 0 20 0;
#X connect 10 0 9 0;
#X connect 11 0 12 0;
#X connect 12 0 8 1;
#X connect 13 0 5 0;
#X connect 14 0 0 0;
#X connect 14 0 23 0;
#X connect 15 0 29 0;
#X connect 16 0 26 0;
#X connect 17 0 27 0;
#X connect 18 0 24 0;
#X connect 19 0 25 0;
#X connect 20 0 8 0;
#X connect 21 0 4 0;
#X connect 24 0 13 0;
#X connect 25 0 10 0;
#X connect 26 0 11 0;
#X connect 27 0 6 0;
#X connect 28 0 33 0;
#X connect 29 0 32 0;
#X connect 30 0 31 0;
#X connect 31 0 10 1;
#X connect 31 1 13 1;
#X connect 32 0 28 0;
#X connect 34 0 30 0;
