#N canvas 505 239 509 364 10;
#X obj 17 13 inlet~;
#X obj 19 338 outlet~;
#X obj 17 38 *~ 0.0009765625;
#X obj 17 62 +~ 1;
#X obj 17 112 *~;
#X obj 17 87 *~;
#X obj 18 162 *~;
#X obj 18 137 *~;
#X obj 18 214 *~;
#X obj 18 189 *~;
#X obj 19 264 *~;
#X obj 19 239 *~;
#X obj 19 314 *~;
#X obj 19 289 *~;
#X text 122 10 https://en.wikipedia.org/wiki/Exponential_function;
#X text 121 29 https://codingforspeed.com/using-faster-exponential-approximation/
;
#X connect 0 0 2 0;
#X connect 2 0 3 0;
#X connect 3 0 5 0;
#X connect 3 0 5 1;
#X connect 4 0 7 0;
#X connect 4 0 7 1;
#X connect 5 0 4 0;
#X connect 5 0 4 1;
#X connect 6 0 9 0;
#X connect 6 0 9 1;
#X connect 7 0 6 0;
#X connect 7 0 6 1;
#X connect 8 0 11 0;
#X connect 8 0 11 1;
#X connect 9 0 8 0;
#X connect 9 0 8 1;
#X connect 10 0 13 0;
#X connect 11 0 10 0;
#X connect 11 0 10 1;
#X connect 12 0 1 0;
#X connect 13 0 12 0;
#X connect 13 0 12 1;
