#N canvas 877 440 376 419 10;
#X obj 35 76 osc~ 440;
#X obj 36 162 *~;
#X obj 51 138 vline~;
#X obj 36 346 *~ 0.5;
#X obj 37 374 dac~;
#X obj 107 164 hsl 128 15 0 500 0 0 empty empty attack -2 -8 0 10 -262144
-1 -1 0 1;
#X obj 95 257 noise~;
#X obj 95 284 *~ 0.1;
#X obj 70 309 *~;
#X obj 70 232 hv.envfollow;
#X text 178 113 <-- trigger;
#X text 32 33 Envelope follower with adjustable attack parameter;
#X floatatom 114 186 5 0 0 0 - - -, f 5;
#X obj 169 200 hsl 128 15 0 1000 0 0 empty empty release -2 -8 0 10
-262144 -1 -1 0 1;
#X floatatom 166 220 5 0 0 0 - - -, f 5;
#X msg 51 112 0 \, 1 1 0 \, 0 100 10;
#X connect 0 0 1 0;
#X connect 1 0 9 0;
#X connect 1 0 3 0;
#X connect 2 0 1 1;
#X connect 3 0 4 0;
#X connect 3 0 4 1;
#X connect 5 0 9 1;
#X connect 5 0 12 0;
#X connect 6 0 7 0;
#X connect 7 0 8 1;
#X connect 8 0 3 0;
#X connect 9 0 8 0;
#X connect 13 0 14 0;
#X connect 13 0 9 2;
#X connect 15 0 2 0;
