#N canvas 155 213 484 611 10;
#X obj 38 464 -~;
#X obj 38 424 sig~ 1;
#X obj 23 524 rpole~;
#X obj 124 50 loadbang;
#X obj 163 110 samplerate~;
#X obj 163 140 * 0.001;
#X obj 97 173 *;
#X msg 97 195 1 \$1;
#X obj 97 217 /;
#X obj 97 239 t b f;
#X msg 97 261 0.01;
#X obj 97 283 pow;
#X obj 23 494 *~;
#X obj 23 315 abs~;
#X obj 97 26 inlet attack;
#X obj 23 26 inlet~;
#X obj 23 564 outlet~;
#X obj 97 423 *~;
#X obj 251 172 *;
#X msg 251 194 1 \$1;
#X obj 251 216 /;
#X obj 251 238 t b f;
#X msg 251 260 0.01;
#X obj 251 282 pow;
#X obj 251 25 inlet release;
#X obj 236 425 *~;
#X obj 112 355 hv.gt;
#X obj 157 355 sig~ 1;
#X obj 157 390 -~;
#X obj 97 140 max 0.1;
#X obj 251 140 max 0.1;
#X obj 251 304 sig~ 0.9;
#X obj 97 303 sig~ 0.9;
#X text 178 484 temp = abs(in);
#X text 178 544 else;
#X text 178 504 if (tmp > env);
#X text 188 564 env = release_coeff * (env - temp) + temp;
#X text 188 524 env) = attack_coeff * env) - temp) + temp;
#X obj 139 328 r~ \$0-env;
#X obj 77 564 s~ \$0-env;
#X obj 124 72 t b b b;
#X obj 97 110 f \$1;
#X obj 251 110 f \$2;
#X connect 0 0 12 1;
#X connect 1 0 0 0;
#X connect 2 0 16 0;
#X connect 2 0 39 0;
#X connect 3 0 40 0;
#X connect 4 0 5 0;
#X connect 5 0 6 1;
#X connect 5 0 18 1;
#X connect 6 0 7 0;
#X connect 7 0 8 0;
#X connect 8 0 9 0;
#X connect 9 0 10 0;
#X connect 9 1 11 1;
#X connect 10 0 11 0;
#X connect 11 0 32 0;
#X connect 12 0 2 0;
#X connect 13 0 12 0;
#X connect 13 0 26 0;
#X connect 14 0 41 0;
#X connect 15 0 13 0;
#X connect 17 0 0 1;
#X connect 17 0 2 1;
#X connect 18 0 19 0;
#X connect 19 0 20 0;
#X connect 20 0 21 0;
#X connect 21 0 22 0;
#X connect 21 1 23 1;
#X connect 22 0 23 0;
#X connect 23 0 31 0;
#X connect 24 0 42 0;
#X connect 25 0 2 1;
#X connect 25 0 0 1;
#X connect 26 0 17 1;
#X connect 26 0 28 1;
#X connect 27 0 28 0;
#X connect 28 0 25 0;
#X connect 29 0 6 0;
#X connect 30 0 18 0;
#X connect 31 0 25 1;
#X connect 32 0 17 0;
#X connect 38 0 26 1;
#X connect 40 0 41 0;
#X connect 40 1 42 0;
#X connect 40 2 4 0;
#X connect 41 0 29 0;
#X connect 42 0 30 0;
