#N canvas 269 33 271 233 10;
#X obj 82 58 inlet freq;
#X obj 125 83 inlet q;
#X obj 39 29 inlet~;
#X obj 39 178 outlet~;
#X obj 168 117 inlet gain;
#X obj 39 146 hv.filters/\$1 \$2 \$3 \$4;
#X connect 0 0 5 1;
#X connect 1 0 5 2;
#X connect 2 0 5 0;
#X connect 4 0 5 3;
#X connect 5 0 3 0;
