#N canvas 238 355 439 434 10;
#X obj 34 246 *~;
#X floatatom 49 199 5 0 0 0 - - -, f 5;
#X obj 49 159 loadbang;
#X obj 34 374 dac~;
#X obj 154 140 hsl 128 15 -1 1 0 0 empty empty empty -2 8 0 10 -262144
-1 -1 0 1;
#N canvas 0 22 263 305 gain 0;
#X obj 64 144 dbtorms;
#X obj 64 124 + 100;
#X obj 64 188 line~;
#X msg 64 166 \$1 100;
#X obj 64 210 outlet~;
#X obj 64 103 inlet;
#X connect 0 0 3 0;
#X connect 1 0 0 0;
#X connect 2 0 4 0;
#X connect 3 0 2 0;
#X connect 5 0 1 0;
#X restore 49 219 pd gain;
#X obj 170 201 hsl 128 15 0 20 0 0 empty empty empty -2 8 0 10 -262144
-1 -1 0 1;
#X obj 183 256 hsl 128 15 0 1 0 0 empty empty empty -2 8 0 10 -262144
-1 -1 0 1;
#X obj 129 76 hsl 128 15 0 1 0 0 empty empty empty -2 8 0 10 -262144
-1 -1 0 1;
#X msg 125 104 mix \$1;
#X msg 149 168 feedback \$1;
#X msg 167 223 speed \$1;
#X msg 180 278 intensity \$1;
#X text 235 170 // -1..1;
#X text 229 223 // 0..20 Hz;
#X text 265 280 // 0..1;
#X text 131 320 // arg \$1 delay time;
#X text 172 103 // 0..1 (0=dry);
#X msg 49 179 -30;
#X text 36 31 Stereo flanger effect unit;
#X obj 34 122 osc~ 500;
#X obj 34 320 hv.flanger2 20;
#X connect 0 0 21 0;
#X connect 0 0 21 1;
#X connect 1 0 5 0;
#X connect 2 0 18 0;
#X connect 4 0 10 0;
#X connect 5 0 0 1;
#X connect 6 0 11 0;
#X connect 7 0 12 0;
#X connect 8 0 9 0;
#X connect 9 0 21 2;
#X connect 10 0 21 2;
#X connect 11 0 21 2;
#X connect 12 0 21 2;
#X connect 18 0 1 0;
#X connect 20 0 0 0;
#X connect 21 0 3 0;
#X connect 21 1 3 1;
