#N canvas 507 258 696 455 10;
#X obj 131 103 phasor~;
#X obj 131 156 cos~;
#X obj 177 154 cos~;
#X obj 44 56 inlet~;
#X obj 113 207 *~;
#X obj 45 257 outlet~;
#X obj 45 205 *~;
#N canvas 0 22 588 330 hilbert 0;
#X obj 105 92 biquad~ 0.83774 -0.06338 0.06338 -0.83774 1;
#X obj 105 66 biquad~ 1.94632 -0.94657 0.94657 -1.94632 1;
#X obj 86 149 biquad~ -0.02569 0.260502 -0.260502 0.02569 1;
#X obj 86 175 biquad~ 1.8685 -0.870686 0.870686 -1.8685 1;
#X obj 86 39 inlet~;
#X obj 105 121 outlet~;
#X obj 86 202 outlet~;
#X connect 0 0 5 0;
#X connect 1 0 0 0;
#X connect 2 0 3 0;
#X connect 3 0 6 0;
#X connect 4 0 1 0;
#X connect 4 0 2 0;
#X restore 44 128 pd hilbert;
#X obj 177 134 +~ 0.25;
#X obj 131 55 inlet~;
#X connect 0 0 1 0;
#X connect 0 0 8 0;
#X connect 1 0 6 1;
#X connect 2 0 4 1;
#X connect 3 0 7 0;
#X connect 4 0 5 0;
#X connect 6 0 5 0;
#X connect 7 0 6 0;
#X connect 7 1 4 0;
#X connect 8 0 2 0;
#X connect 9 0 0 0;
