#N canvas 464 65 1156 753 10;
#X obj 33 188 noise~;
#X obj 33 210 *~ 0.1;
#X obj 453 108 line;
#X obj 456 63 hsl 128 15 100 10000 0 0 empty empty empty -2 -8 0 10
-262144 -1 -1 0 1;
#X text 120 132 lowpassq;
#X text 120 152 highpassq;
#X obj 453 41 r freq @hv_param 100 10000 300;
#X text 120 192 bandpassq2 (constant 0 dB peak gain);
#X text 120 172 bandpassq1 (constant skirt gain \, peak gain = Q);
#X text 120 112 allpassq;
#X text 70 96 Available filters:;
#X obj 33 326 s~ \$0-bp1;
#X obj 785 207 hv.filters/spectrolog;
#X obj 786 454 hv.filters/spectrolog;
#X text 31 57 Includes signal-rate coefficient updating to avoid clicks
when sweeping the controls.;
#X obj 453 130 s \$0-freq;
#X obj 440 205 hv.filters/spectrolog;
#X obj 441 452 hv.filters/spectrolog;
#X obj 440 180 r~ \$0-bp1;
#X obj 441 427 r~ \$0-bp2;
#X obj 785 182 r~ \$0-lpq;
#X obj 786 429 r~ \$0-hpq;
#X obj 33 270 r~ \$0-noise;
#X obj 33 370 r~ \$0-noise;
#X obj 665 108 line;
#X obj 668 63 hsl 128 15 0.1 100 0 0 empty empty empty -2 -8 0 10 -262144
-1 -1 12700 1;
#X obj 665 41 r q @hv_param 0.1 100 0.707;
#X obj 665 130 s \$0-q;
#X msg 665 86 \$1 100;
#X obj 115 270 r \$0-freq;
#X obj 33 426 s~ \$0-bp2;
#X obj 33 398 hv.filter bandpassq2 1000 2;
#X obj 33 298 hv.filter bandpassq1 2000 20;
#X obj 33 232 s~ \$0-noise;
#X obj 198 270 r \$0-q;
#X obj 112 370 r \$0-freq;
#X obj 192 370 r \$0-q;
#X obj 33 460 r~ \$0-noise;
#X obj 112 460 r \$0-freq;
#X obj 192 460 r \$0-q;
#X obj 33 550 r~ \$0-noise;
#X obj 112 550 r \$0-freq;
#X obj 192 550 r \$0-q;
#X obj 33 640 r~ \$0-noise;
#X obj 112 640 r \$0-freq;
#X obj 192 640 r \$0-q;
#X obj 33 488 hv.filter allpassq 1000 2;
#X obj 33 578 hv.filter lowpassq 1000 2;
#X obj 33 668 hv.filter highpassq 1000 2;
#X obj 33 696 s~ \$0-hpq;
#X obj 33 606 s~ \$0-lpq;
#X obj 33 516 s~ \$0-allpass;
#X text 31 19 Generic filter module with swappable filter types and
frequency \, Q settings.;
#X text 120 212 notchq;
#X msg 453 86 \$1 1000;
#X connect 0 0 1 0;
#X connect 1 0 33 0;
#X connect 2 0 15 0;
#X connect 3 0 54 0;
#X connect 6 0 3 0;
#X connect 18 0 16 0;
#X connect 19 0 17 0;
#X connect 20 0 12 0;
#X connect 21 0 13 0;
#X connect 22 0 32 0;
#X connect 23 0 31 0;
#X connect 24 0 27 0;
#X connect 25 0 28 0;
#X connect 26 0 25 0;
#X connect 28 0 24 0;
#X connect 29 0 32 1;
#X connect 31 0 30 0;
#X connect 32 0 11 0;
#X connect 34 0 32 2;
#X connect 35 0 31 1;
#X connect 36 0 31 2;
#X connect 37 0 46 0;
#X connect 38 0 46 1;
#X connect 39 0 46 2;
#X connect 40 0 47 0;
#X connect 41 0 47 1;
#X connect 42 0 47 2;
#X connect 43 0 48 0;
#X connect 44 0 48 1;
#X connect 45 0 48 2;
#X connect 46 0 51 0;
#X connect 47 0 50 0;
#X connect 48 0 49 0;
#X connect 54 0 2 0;
