#N canvas 614 54 485 369 10;
#X obj 57 65 hv.filters/\$1;
#X obj 104 24 inlet freq;
#X obj 172 23 inlet q;
#X obj 57 24 inlet~;
#X obj 57 327 outlet~;
#X obj 100 100 hv.filters/spectrolog;
#X obj 261 23 loadbang;
#X msg 261 45 35;
#X connect 0 0 4 0;
#X connect 0 0 5 0;
#X connect 1 0 0 1;
#X connect 2 0 0 2;
#X connect 3 0 0 0;
#X connect 6 0 7 0;
#X connect 7 0 5 1;
#X coords 0 -1 1 1 330 210 1 100 100;
