#N canvas 1104 365 520 508 10;
#X obj 42 61 noise~;
#X obj 81 149 mtof;
#X obj 42 464 dac~;
#X obj 84 125 hsl 128 15 0 127 0 0 empty empty empty -2 -8 0 10 -262144
-1 -1 0 1;
#X floatatom 130 274 5 0 0 0 - - -, f 5;
#X text 229 393 peakq;
#X obj 42 371 hv.filter.gain peakq;
#X text 179 373 <--- available filters:;
#X obj 123 205 hsl 128 15 0.1 1 0 0 empty empty empty -2 -8 0 10 -262144
-1 -1 5644 1;
#X text 221 125 // frequency;
#X obj 184 275 hsl 128 15 0 1 0 0 empty empty empty -2 -8 0 10 -262144
-1 -1 12700 1;
#X obj 181 295 * 48;
#X obj 181 317 - 28;
#X obj 120 225 * 10;
#X obj 120 247 + 0.1;
#X floatatom 181 339 5 0 0 0 - - -, f 5;
#X floatatom 91 173 5 0 0 0 - - -, f 5;
#X text 263 206 // q;
#X text 322 275 // gain (dB);
#X text 40 21 Generic filter object with gain setting and variable
filter types;
#X obj 42 83 *~ 0.05;
#X obj 181 69 loadbang;
#X msg 181 90 69;
#X msg 199 250 6;
#X msg 149 182 0.5;
#X obj 42 413 *~;
#X obj 84 414 tgl 15 0 empty empty empty 17 7 0 10 -262144 -1 -1 1
1;
#X connect 0 0 20 0;
#X connect 1 0 16 0;
#X connect 1 0 6 1;
#X connect 3 0 1 0;
#X connect 6 0 25 0;
#X connect 8 0 13 0;
#X connect 10 0 11 0;
#X connect 11 0 12 0;
#X connect 12 0 6 3;
#X connect 12 0 15 0;
#X connect 13 0 14 0;
#X connect 14 0 4 0;
#X connect 14 0 6 2;
#X connect 20 0 6 0;
#X connect 21 0 22 0;
#X connect 21 0 24 0;
#X connect 21 0 23 0;
#X connect 22 0 1 0;
#X connect 23 0 10 0;
#X connect 24 0 8 0;
#X connect 25 0 2 0;
#X connect 25 0 2 1;
#X connect 26 0 25 1;
