#N canvas 117 94 165 302 10;
#X obj 14 22 inlet~;
#X obj 14 277 outlet~;
#N canvas 620 157 160 113 @hv_obj 0;
#X obj 16 9 inlet~;
#X obj 16 76 outlet~;
#X obj 16 54 log~;
#X obj 37 31 sig~ 2;
#X connect 0 0 2 0;
#X connect 2 0 1 0;
#X connect 3 0 2 1;
#X restore 14 70 pd @hv_obj __log2~f;
#X obj 77 184 log;
#X obj 77 231 /;
#X msg 77 208 0.693147 \$1;
#X obj 14 46 max~ 0;
#X text 61 46 [0 \, inf];
#X obj 37 117 f \$1;
#X obj 37 94 loadbang;
#X obj 38 160 moses 1;
#X obj 49 137 inlet;
#X obj 14 254 *~ 0.693147;
#X connect 0 0 6 0;
#X connect 2 0 12 0;
#X connect 3 0 5 0;
#X connect 4 0 12 1;
#X connect 5 0 4 0;
#X connect 6 0 2 0;
#X connect 8 0 10 0;
#X connect 9 0 8 0;
#X connect 10 1 3 0;
#X connect 11 0 10 0;
#X connect 12 0 1 0;
