#N canvas 456 238 405 295 10;
#X floatatom 31 245 5 0 0 0 - - -, f 5;
#X floatatom 31 71 5 0 0 0 - - -, f 5;
#X obj 31 91 sig~ 0;
#X obj 76 112 bng 15 250 50 0 empty empty empty 17 7 0 10 -262144 -1
-1;
#X obj 31 224 snapshot~;
#X obj 43 202 metro 100;
#X obj 43 180 loadbang;
#X obj 31 157 hv.log 2;
#X msg 76 132 10;
#X text 30 8 Signal rate logarithm operation. The left inlet must be
a signal and the right inlet takes the base. The base may optionally
also be initialised with the object. If no base is supplied \, then
the natural logarithm is assumed (base e).;
#X connect 1 0 2 0;
#X connect 2 0 7 0;
#X connect 3 0 8 0;
#X connect 4 0 0 0;
#X connect 5 0 4 0;
#X connect 6 0 5 0;
#X connect 7 0 4 0;
#X connect 8 0 7 1;
