#N canvas 807 22 513 247 10;
#X obj 38 197 outlet~;
#N canvas 467 216 159 96 @hv_obj 0;
#X obj 60 18 inlet~;
#X obj 15 18 inlet~;
#X obj 15 65 outlet~;
#X obj 15 42 *~;
#X connect 0 0 3 1;
#X connect 1 0 3 0;
#X connect 3 0 2 0;
#X restore 38 112 pd @hv_obj __and~f;
#N canvas 467 216 188 166 @hv_obj 0;
#X obj 79 11 inlet~;
#X obj 31 11 inlet~;
#X obj 16 112 outlet~;
#X obj 16 37 sig~ 1;
#X obj 16 61 -~;
#X obj 16 89 *~;
#X connect 0 0 5 1;
#X connect 1 0 4 1;
#X connect 3 0 4 0;
#X connect 4 0 5 0;
#X connect 5 0 2 0;
#X restore 162 114 pd @hv_obj __andnot~f;
#N canvas 538 372 182 89 @hv_obj 0;
#X obj 66 18 inlet~;
#X obj 15 18 inlet~;
#X obj 15 65 outlet~;
#X obj 15 42 +~, f 9;
#X connect 0 0 3 1;
#X connect 1 0 3 0;
#X connect 3 0 2 0;
#X restore 38 157 pd @hv_obj __or~f;
#X obj 285 34 inlet~ lhs;
#X obj 384 34 inlet~ rhs;
#X obj 38 34 inlet~ input-a;
#X obj 162 34 inlet~ input-b;
#N canvas 0 22 144 197 @hv_obj 0;
#X obj 23 69 -~;
#X obj 23 94 clip~ -1e-37 0;
#X obj 23 18 inlet~;
#X obj 67 19 inlet~;
#X obj 23 159 outlet~;
#X obj 23 136 *~ 1e+37;
#X obj 23 44 min~;
#X obj 23 115 +~ 1e-37;
#X connect 0 0 1 0;
#X connect 1 0 7 0;
#X connect 2 0 6 0;
#X connect 3 0 6 1;
#X connect 3 0 0 1;
#X connect 5 0 4 0;
#X connect 6 0 0 0;
#X connect 7 0 5 0;
#X restore 285 73 pd @hv_obj __gt~f;
#X connect 1 0 3 0;
#X connect 2 0 3 1;
#X connect 3 0 0 0;
#X connect 4 0 8 0;
#X connect 5 0 8 1;
#X connect 6 0 1 0;
#X connect 7 0 2 1;
#X connect 8 0 2 0;
#X connect 8 0 1 1;
