#N canvas 230 184 148 204 10;
#X obj 12 174 outlet~;
#X obj 12 151 exp~;
#X obj 12 34 max~ 0;
#N canvas 448 206 160 114 @hv_obj 1;
#X obj 19 13 inlet~;
#X obj 19 59 outlet~;
#X obj 19 36 log~ 2;
#X connect 0 0 2 0;
#X connect 2 0 1 0;
#X restore 12 57 pd @hv_obj __log2~f;
#X obj 12 81 *~ 0.693147180559945;
#X obj 12 127 *~;
#X obj 27 104 inlet~ exponent;
#X obj 12 10 inlet~ base;
#X connect 1 0 0 0;
#X connect 2 0 3 0;
#X connect 3 0 4 0;
#X connect 4 0 5 0;
#X connect 5 0 1 0;
#X connect 6 0 5 1;
#X connect 7 0 2 0;
