#N canvas 280 195 191 207 10;
#X obj 19 11 inlet~ base;
#X obj 34 109 inlet~ exponent;
#X obj 19 180 outlet~;
#X obj 19 37 max~ 0;
#N canvas 0 22 150 102 @hv_obj 0;
#X obj 23 12 inlet~;
#X obj 24 61 outlet~;
#X obj 24 37 log~ 2;
#X connect 0 0 2 0;
#X connect 2 0 1 0;
#X restore 19 61 pd @hv_obj __log2~f;
#X obj 19 131 *~;
#X obj 19 156 exp~;
#X obj 19 85 *~ 0.693147180559945;
#X connect 0 0 3 0;
#X connect 1 0 5 1;
#X connect 3 0 4 0;
#X connect 4 0 7 0;
#X connect 5 0 6 0;
#X connect 6 0 2 0;
#X connect 7 0 5 0;
