#N canvas 25 223 746 494 10;
#X obj 37 319 *~;
#X obj 153 317 *~;
#X obj 37 24 inlet~;
#X obj 168 292 r \$0-wet-gain;
#X obj 52 293 r \$0-dry-gain;
#X obj 37 358 outlet~;
#N canvas 43 53 958 610 reverb 0;
#X obj 13 19 inlet~;
#X obj 277 215 +~;
#X obj 319 215 +~;
#X obj 67 276 outlet~;
#X obj 137 276 outlet~;
#X obj 238 334 +~;
#X obj 347 335 +~;
#X obj 280 334 -~;
#X obj 387 334 -~;
#X obj 237 390 +~;
#X obj 281 391 +~;
#X obj 325 392 -~;
#X obj 364 392 -~;
#X obj 324 474 *~ 0;
#X obj 282 473 *~ 0;
#X obj 237 472 *~ 0;
#X obj 365 475 *~ 0;
#X obj 632 365 inlet;
#X obj 632 437 / 200;
#X obj 632 389 min 100;
#X obj 632 412 max 0;
#X text 286 42 "early echo" generators \, which also increase echo
density. Open one to see what they do.;
#X text 300 115 Get the outputs of the recirculating delays. Add the
inputs to two of them.;
#X text 420 313 Do a power-conserving mix of them in pairs. First combine
(1 \, 2) and (3 \, 4)...;
#X text 402 385 ...then (1 \, 3) and (2 \, 4);
#X text 446 469 The two mixing stages have a combined gain of 2 \,
so the recirculation gain is limited to 0.5.;
#X text 586 542 Put the signals back into the;
#X text 584 557 recirculating delays.;
#X text 29 296 Tap outputs from here.;
#X text 708 381 0 to 100 to control reverb;
#X text 719 396 time.;
#X text 691 364 feedback gain on a scale of;
#X obj 296 154 delread~ \$0-loop-del1 60;
#X obj 340 179 delread~ \$0-loop-del2 71.9345;
#X obj 386 208 delread~ \$0-loop-del3 86.7545;
#X obj 408 233 delread~ \$0-loop-del4 95.945;
#X obj 364 515 delwrite~ \$0-loop-del4 95.945;
#X obj 323 538 delwrite~ \$0-loop-del3 86.7545;
#X obj 283 561 delwrite~ \$0-loop-del2 71.9345;
#X obj 238 583 delwrite~ \$0-loop-del1 60;
#X obj 13 43 reverb-echo \$0-echo-del1 5.43216;
#X obj 13 67 reverb-echo \$0-echo-del2 8.45346;
#X obj 13 91 reverb-echo \$0-echo-del3 13.4367;
#X obj 13 115 reverb-echo \$0-echo-del4 21.5463;
#X obj 13 139 reverb-echo \$0-echo-del5 34.3876;
#X obj 13 163 reverb-echo \$0-echo-del6 55.5437;
#X connect 0 0 40 0;
#X connect 1 0 3 0;
#X connect 1 0 5 0;
#X connect 1 0 7 0;
#X connect 2 0 4 0;
#X connect 2 0 5 1;
#X connect 2 0 7 1;
#X connect 5 0 9 0;
#X connect 5 0 11 0;
#X connect 6 0 11 1;
#X connect 6 0 9 1;
#X connect 7 0 10 0;
#X connect 7 0 12 0;
#X connect 8 0 10 1;
#X connect 8 0 12 1;
#X connect 9 0 15 0;
#X connect 10 0 14 0;
#X connect 11 0 13 0;
#X connect 12 0 16 0;
#X connect 13 0 37 0;
#X connect 14 0 38 0;
#X connect 15 0 39 0;
#X connect 16 0 36 0;
#X connect 17 0 19 0;
#X connect 18 0 16 1;
#X connect 18 0 15 1;
#X connect 18 0 14 1;
#X connect 18 0 13 1;
#X connect 19 0 20 0;
#X connect 20 0 18 0;
#X connect 32 0 1 1;
#X connect 33 0 2 1;
#X connect 34 0 6 0;
#X connect 34 0 8 0;
#X connect 35 0 6 1;
#X connect 35 0 8 1;
#X connect 40 0 41 0;
#X connect 40 1 41 1;
#X connect 41 0 42 0;
#X connect 41 1 42 1;
#X connect 42 0 43 0;
#X connect 42 1 43 1;
#X connect 43 0 44 0;
#X connect 43 1 44 1;
#X connect 44 0 45 0;
#X connect 44 1 45 1;
#X connect 45 0 1 0;
#X connect 45 1 2 0;
#X restore 153 211 pd reverb;
#X text 219 258 Original author: Miller Puckette;
#X text 219 204 Taken from the recirculating reverberator patch G08.Reverb.pd
in help browser.;
#X obj 395 11 inlet;
#X obj 395 74 hv.dispatch \$0 wet-gain 0.5;
#X obj 395 53 hv.dispatch \$0 dry-gain 0.5;
#X obj 204 183 r \$0-feedback;
#X obj 395 32 hv.dispatch \$0 feedback 50;
#X obj 89 83 hv.filter lowpassq;
#X obj 144 109 r \$0-lowcut;
#X obj 89 140 hv.filter highpassq;
#X obj 141 50 r \$0-highcut;
#X obj 395 96 hv.dispatch \$0 highcut 24000;
#X obj 395 118 hv.dispatch \$0 lowcut 5;
#X text 219 236 http://msp.ucsd.edu/techniques/v0.11/book-html/node124.html
;
#X connect 0 0 5 0;
#X connect 1 0 5 0;
#X connect 2 0 0 0;
#X connect 2 0 14 0;
#X connect 3 0 1 1;
#X connect 4 0 0 1;
#X connect 6 0 1 0;
#X connect 9 0 13 0;
#X connect 10 0 18 0;
#X connect 11 0 10 0;
#X connect 12 0 6 1;
#X connect 13 0 11 0;
#X connect 14 0 16 0;
#X connect 15 0 16 1;
#X connect 16 0 6 0;
#X connect 17 0 14 1;
#X connect 18 0 19 0;
