#N canvas 666 490 477 440 10;
#X obj 149 159 hv_blepsaw;
#X floatatom 149 118 5 0 0 0 - - -, f 5;
#X obj 149 137 sig~;
#X obj 149 293 dac~;
#X text 183 118 Hz;
#X text 182 138 (frequency input needs to be at signal rate);
#X text 44 38 Band-limited saw based on christian foisland's polyblep
implementation:;
#X text 45 69 https://github.com/cfloisand/pd-polyblep/blob/master/Source/polyblep~.c
;
#X text 49 350 The output can get a bit noisy at upper frequencies
\, but reduces effects of aliasing when using a phasor~ and doesn't
require wavetables.;
#X obj 64 160 phasor~;
#X obj 64 182 *~ 2;
#X obj 64 204 -~ 1;
#X obj 217 210 tgl 15 0 empty empty empty 17 7 0 10 -262144 -1 -1 0
1;
#X obj 217 230 == 0;
#X text 234 208 compare to (centred) phasor output;
#X obj 64 247 *~ 1;
#X obj 149 247 *~ 0;
#X obj 150 271 *~ 0.1;
#X connect 0 0 16 0;
#X connect 1 0 2 0;
#X connect 2 0 0 0;
#X connect 2 0 9 0;
#X connect 9 0 10 0;
#X connect 10 0 11 0;
#X connect 11 0 15 0;
#X connect 12 0 13 0;
#X connect 12 0 15 1;
#X connect 13 0 16 1;
#X connect 15 0 17 0;
#X connect 16 0 17 0;
#X connect 17 0 3 0;
#X connect 17 0 3 1;
