#N canvas 146 78 174 265 10;
#X obj 32 36 inlet;
#X obj 77 126 outlet;
#X obj 32 96 route \$2;
#X obj 32 206 s \$1-\$2;
#X obj 32 66 list trim;
#X obj 48 157 loadbang;
#X obj 48 179 \$3;
#X connect 0 0 4 0;
#X connect 2 0 3 0;
#X connect 2 1 1 0;
#X connect 4 0 2 0;
#X connect 5 0 6 0;
#X connect 6 0 3 0;
