#N canvas 720 92 609 902 10;
#N canvas 0 22 783 567 hz2rad 0;
#X obj 194 113 samplerate~;
#X obj 194 71 loadbang;
#X obj 194 185 atan;
#X msg 194 160 1;
#X text 382 53 w = 2 * pi * f / SR;
#X obj 194 207 * 8;
#X obj 194 137 t b a;
#X obj 194 230 / 44100;
#X text 260 232 2 * pi / SR;
#X obj 119 269 *;
#X obj 119 35 inlet;
#X obj 119 298 outlet;
#X text 175 300 w(rad);
#X text 167 35 freq(Hz);
#X connect 0 0 6 0;
#X connect 1 0 0 0;
#X connect 2 0 5 0;
#X connect 3 0 2 0;
#X connect 5 0 7 0;
#X connect 6 0 3 0;
#X connect 6 1 7 1;
#X connect 7 0 9 1;
#X connect 9 0 11 0;
#X connect 10 0 9 0;
#X restore 52 354 pd hz2rad;
#X obj 52 384 t f f;
#X obj 120 414 sin;
#X obj 52 414 cos;
#X obj 120 454 s \$0-wsin;
#X obj 52 454 s \$0-wcos;
#X obj 52 294 clip 20 20000;
#X obj 226 294 clip 0.1 100;
#X obj 320 295 clip -24 24;
#X obj 314 49 inlet dBGain;
#X obj 320 455 s \$0-A;
#X obj 320 325 / 40;
#X obj 320 355 t b f;
#X msg 320 385 10;
#X obj 320 415 pow 0;
#X obj 151 324 r \$0-wsin;
#X obj 211 454 s \$0-alpha;
#X msg 226 324 1 \$1;
#X obj 226 354 /;
#X obj 211 384 *;
#X obj 211 414 * 0.5;
#N canvas 0 22 450 300 b0 0;
#X obj 54 65 r \$0-wcos;
#X obj 124 65 r \$0-wsin;
#X obj 272 65 r \$0-A;
#X obj 194 65 r \$0-alpha;
#X obj 194 181 outlet;
#X obj 194 119 *;
#X obj 194 151 + 1;
#X connect 2 0 5 1;
#X connect 3 0 5 0;
#X connect 5 0 6 0;
#X connect 6 0 4 0;
#X restore 201 654 pd b0;
#N canvas 0 22 450 300 b1 0;
#X obj 54 65 r \$0-wcos;
#X obj 124 65 r \$0-wsin;
#X obj 274 65 r \$0-A;
#X obj 194 65 r \$0-alpha;
#X obj 54 178 outlet;
#X obj 54 127 * -2;
#X connect 0 0 5 0;
#X connect 5 0 4 0;
#X restore 241 654 pd b1;
#N canvas 0 22 450 300 b2 0;
#X obj 54 65 r \$0-wcos;
#X obj 124 65 r \$0-wsin;
#X obj 272 65 r \$0-A;
#X obj 194 65 r \$0-alpha;
#X obj 194 198 outlet;
#X obj 194 124 *;
#X msg 194 146 1 \$1;
#X obj 194 168 -;
#X connect 2 0 5 1;
#X connect 3 0 5 0;
#X connect 5 0 6 0;
#X connect 6 0 7 0;
#X connect 7 0 4 0;
#X restore 281 654 pd b2;
#N canvas 0 22 450 300 a0 0;
#X obj 54 65 r \$0-wcos;
#X obj 124 65 r \$0-wsin;
#X obj 270 65 r \$0-A;
#X obj 194 65 r \$0-alpha;
#X obj 194 200 outlet;
#X obj 194 139 + 1;
#X obj 194 117 /;
#X connect 2 0 6 1;
#X connect 3 0 6 0;
#X connect 5 0 4 0;
#X connect 6 0 5 0;
#X restore 50 534 pd a0;
#N canvas 0 22 450 300 a1 0;
#X obj 54 65 r \$0-wcos;
#X obj 124 65 r \$0-wsin;
#X obj 274 65 r \$0-A;
#X obj 194 65 r \$0-alpha;
#X obj 54 198 outlet;
#X obj 54 127 * -2;
#X connect 0 0 5 0;
#X connect 5 0 4 0;
#X restore 121 654 pd a1;
#N canvas 0 22 450 300 a2 0;
#X obj 54 65 r \$0-wcos;
#X obj 124 65 r \$0-wsin;
#X obj 268 65 r \$0-A;
#X obj 196 65 r \$0-alpha;
#X obj 196 187 outlet;
#X obj 196 107 /;
#X msg 196 129 1 \$1;
#X obj 196 151 -;
#X connect 2 0 5 1;
#X connect 3 0 5 0;
#X connect 5 0 6 0;
#X connect 6 0 7 0;
#X connect 7 0 4 0;
#X restore 161 654 pd a2;
#X text 302 829 H = -----------------------------;
#X text 331 813 ff1 + ff2*z^(-1) + ff3*z^(-2);
#X text 332 849 1 - fb1*z^(-1) - fb2*z^(-2);
#X text 296 704 Audio-Cookbook:;
#X text 328 756 1 + (-a1/a0)*z^(-1) + (-a2/a0)*z^(-2);
#X text 298 736 H = -----------------------------------------;
#X text 327 723 (b0/a0) + (b1/a0)*z^(-1) + (b2/a0)*z^(-2);
#X obj 35 564 f;
#X msg 35 594 1 \$1;
#X obj 35 624 /;
#X obj 35 714 *;
#X obj 35 654 t f f f f f;
#X obj 75 714 *;
#X obj 115 714 *;
#X obj 155 714 *;
#X obj 195 714 *;
#X text 135 807 fb1 fb2 ff1 ff2 ff3;
#X obj 35 806 pack f f f f f;
#X obj 35 734 * -1;
#X obj 75 734 * -1;
#X text 295 792 Pd biquad~:;
#X text 169 585 b0 = 1 + alpha*A;
#X text 169 605 b1 = -2*cos(w0);
#X text 169 625 b2 = 1 - alpha*A;
#X text 169 525 a0 = 1 + alpha/A;
#X text 169 545 a1 = -2*cos(w0);
#X text 169 565 a2 = 1 - alpha/A;
#X text 390 416 w0 = 2*pi*f0*Fs;
#X text 390 456 A = 10^(dbGain/40);
#X text 390 436 alpha = sin(w0)/(2*Q);
#X obj 35 866 outlet;
#X obj 35 179 t b a b b;
#X obj 314 69 t b f;
#X obj 220 69 t b f;
#X obj 35 49 inlet freq;
#X obj 220 49 inlet q;
#X obj 60 89 loadbang;
#X obj 35 140 f \$1;
#X obj 226 257 f \$2;
#X obj 320 259 f \$3;
#X text 33 15 biquad~ filter coefficient generator for peaking eq with
Q;
#X connect 0 0 1 0;
#X connect 1 0 3 0;
#X connect 1 1 2 0;
#X connect 2 0 4 0;
#X connect 3 0 5 0;
#X connect 6 0 0 0;
#X connect 7 0 17 0;
#X connect 8 0 11 0;
#X connect 9 0 59 0;
#X connect 11 0 12 0;
#X connect 12 0 13 0;
#X connect 12 1 14 1;
#X connect 13 0 14 0;
#X connect 14 0 10 0;
#X connect 15 0 19 0;
#X connect 17 0 18 0;
#X connect 18 0 19 1;
#X connect 19 0 20 0;
#X connect 20 0 16 0;
#X connect 21 0 40 1;
#X connect 22 0 41 1;
#X connect 23 0 42 1;
#X connect 24 0 34 1;
#X connect 25 0 37 1;
#X connect 26 0 39 1;
#X connect 34 0 35 0;
#X connect 35 0 36 0;
#X connect 36 0 38 0;
#X connect 37 0 45 0;
#X connect 38 0 37 0;
#X connect 38 1 39 0;
#X connect 38 2 40 0;
#X connect 38 3 41 0;
#X connect 38 4 42 0;
#X connect 39 0 46 0;
#X connect 40 0 44 2;
#X connect 41 0 44 3;
#X connect 42 0 44 4;
#X connect 44 0 57 0;
#X connect 45 0 44 0;
#X connect 46 0 44 1;
#X connect 58 0 34 0;
#X connect 58 1 6 0;
#X connect 58 2 65 0;
#X connect 58 3 66 0;
#X connect 59 0 64 0;
#X connect 59 1 66 1;
#X connect 60 0 64 0;
#X connect 60 1 65 1;
#X connect 61 0 64 0;
#X connect 62 0 60 0;
#X connect 63 0 64 0;
#X connect 64 0 58 0;
#X connect 65 0 7 0;
#X connect 66 0 8 0;
