#N canvas 720 92 536 446 10;
#X obj 34 237 noise~;
#X obj 34 259 *~ 0.1;
#X obj 34 296 biquad~;
#X obj 34 337 *~ 0.5;
#X obj 32 392 dac~;
#X obj 110 131 + 20;
#X obj 113 58 hsl 128 15 0 1 0 0 empty empty empty -2 -8 0 10 -262144
-1 -1 0 1;
#X obj 110 109 * 19980;
#X obj 183 105 hsl 128 15 0 1 0 0 empty empty empty -2 -8 0 10 -262144
-1 -1 0 1;
#X floatatom 118 157 5 0 0 0 - - -, f 5;
#X obj 180 147 + 0.1;
#X obj 180 125 * 9.9;
#X floatatom 197 169 5 0 0 0 - - -, f 5;
#X obj 261 145 hsl 128 15 0 1 0 0 empty empty empty -2 -8 0 10 -262144
-1 -1 0 1;
#X floatatom 275 209 5 0 0 0 - - -, f 5;
#X obj 258 165 * 48;
#X obj 258 187 - 24;
#X text 22 17 biquad~ filter coefficient generator for peaking eq with
Q;
#X obj 110 263 hv_fcoeff_peakq 2 24;
#X text 253 58 // frequency 20 ... 20000;
#X text 322 104 // Q 0.1 ... 10;
#X text 407 143 // gain -24 .. 24;
#X text 256 262 // arg \$1 Q;
#X text 256 282 // arg \$2 gain;
#X connect 0 0 1 0;
#X connect 1 0 2 0;
#X connect 2 0 3 0;
#X connect 3 0 4 0;
#X connect 3 0 4 1;
#X connect 5 0 9 0;
#X connect 5 0 18 0;
#X connect 6 0 7 0;
#X connect 7 0 5 0;
#X connect 8 0 11 0;
#X connect 10 0 12 0;
#X connect 10 0 18 1;
#X connect 11 0 10 0;
#X connect 13 0 15 0;
#X connect 15 0 16 0;
#X connect 16 0 14 0;
#X connect 16 0 18 2;
#X connect 18 0 2 0;
