#N canvas 832 188 445 456 10;
#X obj 49 24 noise~;
#X obj 139 167 rpole~ 0.99765;
#X obj 139 127 *~ 0.099046;
#X text 167 105 b0;
#X text 275 106 b1;
#X text 375 105 b2;
#X obj 249 127 *~ 0.296516;
#X obj 249 167 rpole~ 0.963;
#X obj 349 167 rpole~ 0.57;
#X obj 349 127 *~ 1.05269;
#X obj 50 228 +~;
#X obj 50 257 +~;
#X obj 49 127 *~ 0.1848;
#X obj 50 284 +~;
#X obj 50 416 outlet~;
#X text 151 340 b0 = 0.99765 * b0 + white * 0.099046 \;;
#X text 151 360 b1 = 0.963 * b1 + white * 0.296516 \;;
#X text 151 380 b2 = 0.57 * b2 + white * 1.05269 \;;
#X text 150 399 tmp = b0 + b1 + b2 + white * 0.1848 \;;
#X text 150 287 http://www.firstpr.com.au/dsp/pink-noise/;
#X text 150 316 Paul Kellet's economy method:;
#X obj 50 336 *~ 0.2;
#X connect 0 0 2 0;
#X connect 0 0 6 0;
#X connect 0 0 9 0;
#X connect 0 0 12 0;
#X connect 1 0 10 1;
#X connect 2 0 1 0;
#X connect 6 0 7 0;
#X connect 7 0 11 1;
#X connect 8 0 13 1;
#X connect 9 0 8 0;
#X connect 10 0 11 0;
#X connect 11 0 13 0;
#X connect 12 0 10 0;
#X connect 13 0 21 0;
#X connect 21 0 14 0;
