#N canvas 1159 431 540 482 10;
#X text 47 26 [line~] based replacement for [vline~];
#X obj 53 259 hv_vline~;
#X obj 128 259 vline~;
#X msg 334 27 \; pd dsp 1 \; start bang;
#X text 412 42 Click to start;
#X obj 53 368 snapshot~;
#X floatatom 53 391 5 0 0 0 - - -, f 5;
#X obj 66 313 metro 100;
#X obj 66 288 r start;
#X msg 53 96 1 1000;
#X msg 141 212 stop;
#X msg 110 143 0;
#X text 118 93 ramp up;
#X msg 82 118 0 1000;
#X text 145 121 ramp down;
#X text 132 163 ramp up \, jump down \, ramp up again;
#X msg 126 184 1 1000 \, 0 0 1000 \, 1 1000 1000;
#X text 148 142 jump down;
#X text 184 211 "stop" message freezes vline~ at its current value
;
#X obj 128 368 snapshot~;
#X floatatom 128 391 5 0 0 0 - - -, f 5;
#X connect 1 0 5 0;
#X connect 2 0 19 0;
#X connect 5 0 6 0;
#X connect 7 0 5 0;
#X connect 7 0 19 0;
#X connect 8 0 7 0;
#X connect 9 0 2 0;
#X connect 9 0 1 0;
#X connect 10 0 2 0;
#X connect 10 0 1 0;
#X connect 11 0 2 0;
#X connect 11 0 1 0;
#X connect 13 0 2 0;
#X connect 13 0 1 0;
#X connect 16 0 2 0;
#X connect 16 0 1 0;
#X connect 19 0 20 0;
