#N canvas 1053 269 541 429 10;
#X obj 29 353 -~;
#X obj 389 131 -~;
#X obj 139 19 sig~ 1;
#X obj 194 73 /~;
#X obj 29 385 outlet~;
#X obj 29 20 inlet~ phase;
#X obj 403 18 inlet~ normalisedFreq;
#X obj 29 248 *~;
#X obj 179 249 *~;
#X obj 29 127 *~;
#X obj 179 219 -~;
#N canvas 467 216 450 300 @hv_obj 0;
#X obj 217 60 inlet~;
#X obj 120 60 inlet~;
#X obj 145 135 outlet~;
#X obj 145 97 *~;
#X connect 0 0 3 1;
#X connect 1 0 3 0;
#X connect 3 0 2 0;
#X restore 29 275 pd @hv_obj __and~f;
#N canvas 715 101 191 233 @hv_obj 0;
#X obj 49 83 -~;
#X obj 50 109 clip~ -1e-37 0;
#X obj 49 32 inlet~;
#X obj 93 33 inlet~;
#X obj 50 174 outlet~;
#X obj 50 151 *~ 1e+37;
#X obj 49 58 min~;
#X obj 50 130 +~ 1e-37;
#X connect 0 0 1 0;
#X connect 1 0 7 0;
#X connect 2 0 6 0;
#X connect 2 0 0 1;
#X connect 3 0 6 1;
#X connect 5 0 4 0;
#X connect 6 0 0 0;
#X connect 7 0 5 0;
#X restore 134 156 pd @hv_obj __lte~f;
#N canvas 467 216 450 300 @hv_obj 0;
#X obj 179 61 inlet~;
#X obj 120 60 inlet~;
#X obj 146 134 outlet~;
#X obj 150 95 *~;
#X connect 0 0 3 1;
#X connect 1 0 3 0;
#X connect 3 0 2 0;
#X restore 179 275 pd @hv_obj __and~f;
#N canvas 258 74 144 198 @hv_obj 0;
#X obj 23 69 -~;
#X obj 23 94 clip~ -1e-37 0;
#X obj 23 18 inlet~;
#X obj 67 19 inlet~;
#X obj 23 159 outlet~;
#X obj 23 136 *~ 1e+37;
#X obj 23 44 min~;
#X obj 23 115 +~ 1e-37;
#X connect 0 0 1 0;
#X connect 1 0 7 0;
#X connect 2 0 6 0;
#X connect 3 0 6 1;
#X connect 3 0 0 1;
#X connect 5 0 4 0;
#X connect 6 0 0 0;
#X connect 7 0 5 0;
#X restore 284 156 pd @hv_obj __gte~f;
#X obj 194 189 -~;
#X obj 29 218 -~;
#X connect 0 0 4 0;
#X connect 1 0 14 1;
#X connect 2 0 3 0;
#X connect 2 0 1 0;
#X connect 2 0 15 1;
#X connect 2 0 16 1;
#X connect 3 0 9 1;
#X connect 3 0 15 0;
#X connect 5 0 9 0;
#X connect 5 0 12 0;
#X connect 5 0 14 0;
#X connect 6 0 1 1;
#X connect 6 0 3 1;
#X connect 6 0 12 1;
#X connect 7 0 11 0;
#X connect 8 0 13 0;
#X connect 9 0 10 0;
#X connect 9 0 16 0;
#X connect 10 0 8 0;
#X connect 10 0 8 1;
#X connect 11 0 0 0;
#X connect 12 0 11 1;
#X connect 13 0 0 1;
#X connect 14 0 13 1;
#X connect 15 0 10 1;
#X connect 16 0 7 0;
#X connect 16 0 7 1;
