#N canvas 362 23 425 358 10;
#X obj 43 105 inlet~ freq;
#X obj 43 161 phasor~;
#X obj 43 312 outlet~;
#X obj 127 105 inlet phase;
#X text 40 25 Band-limited saw based on christian foisland's polyblep
implementation:;
#X text 41 56 https://github.com/cfloisand/pd-polyblep/blob/master/Source/polyblep~.c
;
#X obj 140 191 *~;
#X obj 43 280 +~;
#N canvas 0 22 220 222 saw 1;
#X obj 62 119 -~ 1;
#X obj 62 141 outlet~;
#X obj 62 73 inlet~;
#X obj 62 97 +~;
#X connect 0 0 1 0;
#X connect 2 0 3 0;
#X connect 2 0 3 1;
#X connect 3 0 0 0;
#X restore 43 221 pd saw;
#X obj 95 221 polyblep;
#N canvas 0 22 253 235 1/Fs 0;
#X obj 55 77 samplerate~;
#X obj 55 57 loadbang;
#X msg 55 97 1 \$1;
#X obj 55 117 /;
#X obj 55 137 sig~;
#X obj 55 159 outlet~;
#X connect 0 0 2 0;
#X connect 1 0 0 0;
#X connect 2 0 3 0;
#X connect 3 0 4 0;
#X connect 4 0 5 0;
#X restore 155 161 pd 1/Fs;
#X connect 0 0 1 0;
#X connect 0 0 6 0;
#X connect 1 0 8 0;
#X connect 1 0 9 0;
#X connect 3 0 1 1;
#X connect 6 0 9 1;
#X connect 7 0 2 0;
#X connect 8 0 7 0;
#X connect 9 0 7 1;
#X connect 10 0 6 1;
