#N canvas 1030 287 594 618 10;
#X obj 43 105 inlet~ freq;
#X obj 465 118 samplerate~;
#X obj 465 96 loadbang;
#X obj 404 278 sig~ 1;
#X obj 433 313 -~;
#X obj 123 501 *~;
#X obj 307 504 *~;
#X obj 123 338 /~;
#X obj 123 379 +~;
#X obj 153 379 *~;
#X obj 123 401 -~;
#X obj 123 431 -~ 1;
#X obj 307 361 /~;
#X obj 307 390 +~;
#X obj 337 390 *~;
#X obj 307 338 -~ 1;
#X obj 307 412 +~;
#X obj 307 442 +~ 1;
#X obj 43 339 *~ 2;
#X obj 43 361 -~ 1;
#X obj 43 550 -~;
#X obj 43 191 phasor~;
#X obj 43 572 outlet~;
#X text 94 192 phase;
#X text 346 193 normalised freq;
#X text 48 380 sawtooth;
#X obj 204 338 ../hv.lte;
#X obj 382 337 ../hv.gte;
#X obj 197 103 inlet phase;
#X text 40 25 Band-limited saw based on christian foisland's polyblep
implementation:;
#X text 41 56 https://github.com/cfloisand/pd-polyblep/blob/master/Source/polyblep~.c
;
#X msg 465 140 1 \$1;
#X obj 465 162 /;
#X obj 450 191 *~;
#X connect 0 0 21 0;
#X connect 0 0 33 0;
#X connect 1 0 31 0;
#X connect 2 0 1 0;
#X connect 3 0 4 0;
#X connect 4 0 27 1;
#X connect 5 0 20 1;
#X connect 6 0 20 1;
#X connect 7 0 8 0;
#X connect 7 0 8 1;
#X connect 7 0 9 1;
#X connect 7 0 9 0;
#X connect 8 0 10 0;
#X connect 9 0 10 1;
#X connect 10 0 11 0;
#X connect 11 0 5 0;
#X connect 12 0 13 0;
#X connect 12 0 13 1;
#X connect 12 0 14 1;
#X connect 12 0 14 0;
#X connect 13 0 16 0;
#X connect 14 0 16 1;
#X connect 15 0 12 0;
#X connect 16 0 17 0;
#X connect 17 0 6 0;
#X connect 18 0 19 0;
#X connect 19 0 20 0;
#X connect 20 0 22 0;
#X connect 21 0 18 0;
#X connect 21 0 7 0;
#X connect 21 0 15 0;
#X connect 21 0 26 0;
#X connect 21 0 27 0;
#X connect 26 0 5 1;
#X connect 27 0 6 1;
#X connect 28 0 21 1;
#X connect 31 0 32 0;
#X connect 32 0 33 1;
#X connect 33 0 4 1;
#X connect 33 0 12 1;
#X connect 33 0 7 1;
#X connect 33 0 26 1;
