#N canvas 1205 348 294 413 10;
#X obj 59 36 inlet~;
#X obj 122 36 inlet width;
#X msg 96 192 0;
#X obj 61 266 -~;
#X obj 61 362 outlet~;
#X obj 161 234 * 2;
#X obj 61 302 +~;
#X obj 61 332 -~ 1;
#X obj 161 264 sig~;
#X obj 122 158 t b f f;
#X obj 61 236 saw;
#X obj 96 236 saw;
#X obj 145 105 loadbang;
#X msg 145 127 0.5;
#X obj 122 78 clip 0 1;
#X connect 0 0 10 0;
#X connect 0 0 11 0;
#X connect 1 0 14 0;
#X connect 2 0 10 1;
#X connect 3 0 6 0;
#X connect 5 0 8 0;
#X connect 6 0 7 0;
#X connect 7 0 4 0;
#X connect 8 0 6 1;
#X connect 9 0 2 0;
#X connect 9 1 11 1;
#X connect 9 2 5 0;
#X connect 10 0 3 0;
#X connect 11 0 3 1;
#X connect 12 0 13 0;
#X connect 13 0 9 0;
#X connect 14 0 9 0;
