#N canvas 658 213 442 528 10;
#X obj 44 35 inlet~ freq;
#X obj 44 81 phasor~;
#X obj 46 487 outlet~;
#X obj 151 252 *~;
#X obj 46 336 +~;
#N canvas 0 22 220 222 saw 0;
#X obj 62 119 -~ 1;
#X obj 62 141 outlet~;
#X obj 62 73 inlet~;
#X obj 62 97 +~;
#X connect 0 0 1 0;
#X connect 2 0 3 0;
#X connect 2 0 3 1;
#X connect 3 0 0 0;
#X restore 46 296 pd saw;
#X obj 254 222 +~;
#X obj 254 254 wrap~;
#X obj 46 397 -~;
#X obj 190 326 +~;
#N canvas 0 22 220 222 saw 0;
#X obj 62 119 -~ 1;
#X obj 62 141 outlet~;
#X obj 62 73 inlet~;
#X obj 62 97 +~;
#X connect 0 0 1 0;
#X connect 2 0 3 0;
#X connect 2 0 3 1;
#X connect 3 0 0 0;
#X restore 190 296 pd saw;
#X obj 46 457 -~ 1;
#X obj 46 427 +~;
#X obj 254 296 polyblep;
#X obj 106 296 polyblep;
#X obj 269 66 sig~ 0.5;
#N canvas 0 22 253 235 1/Fs 0;
#X obj 55 77 samplerate~;
#X obj 55 57 loadbang;
#X msg 55 97 1 \$1;
#X obj 55 117 /;
#X obj 55 137 sig~;
#X obj 55 159 outlet~;
#X connect 0 0 2 0;
#X connect 1 0 0 0;
#X connect 2 0 3 0;
#X connect 3 0 4 0;
#X connect 4 0 5 0;
#X restore 166 224 pd 1/Fs;
#X obj 269 36 inlet width;
#X obj 269 119 samphold~;
#X obj 341 296 +~;
#X connect 0 0 1 0;
#X connect 0 0 3 0;
#X connect 1 0 5 0;
#X connect 1 0 6 0;
#X connect 1 0 14 0;
#X connect 1 0 18 1;
#X connect 3 0 13 1;
#X connect 3 0 14 1;
#X connect 4 0 8 0;
#X connect 5 0 4 0;
#X connect 6 0 7 0;
#X connect 7 0 10 0;
#X connect 7 0 13 0;
#X connect 8 0 12 0;
#X connect 9 0 8 1;
#X connect 10 0 9 0;
#X connect 11 0 2 0;
#X connect 12 0 11 0;
#X connect 13 0 9 1;
#X connect 14 0 4 1;
#X connect 15 0 18 0;
#X connect 16 0 3 1;
#X connect 17 0 15 0;
#X connect 18 0 6 1;
#X connect 18 0 19 0;
#X connect 18 0 19 1;
#X connect 19 0 12 1;
