#N canvas 169 35 325 250 10;
#X obj 35 206 outlet~;
#X obj 35 44 inlet~;
#N canvas 140 389 549 400 @hv_obj 0;
#X obj 133 65 inlet~ b0;
#X obj 204 65 inlet~ b1;
#X obj 276 65 inlet~ b2;
#X obj 347 65 inlet~ a1;
#X obj 417 65 inlet~ a2;
#X obj 51 65 inlet~;
#N canvas 457 278 463 637 zeros 0;
#X obj 114 473 czero~;
#X obj 114 523 czero~;
#X obj 114 583 outlet~;
#X obj 147 553 outlet~;
#X obj 206 74 inlet~ b0;
#X obj 277 74 inlet~ b1;
#X obj 349 74 inlet~ b2;
#X obj 114 74 inlet~;
#X obj 206 242 *~ -1;
#X obj 206 264 *~ 0.5;
#X obj 299 227 *~;
#X obj 302 293 -~;
#X obj 326 248 *~ 4;
#X obj 326 226 *~;
#X obj 351 319 abs~;
#X obj 351 363 *~ 0.5;
#X obj 349 401 /~;
#N canvas 490 269 488 402 location 0;
#X obj 63 64 inlet~;
#X obj 165 71 inlet~;
#X obj 334 70 inlet~;
#X obj 63 314 outlet~;
#X obj 132 316 outlet~;
#X obj 244 317 outlet~;
#X obj 336 319 outlet~;
#N canvas 0 22 450 300 gte 0;
#X obj 148 48 inlet~;
#X obj 43 48 inlet~;
#X obj 43 143 outlet~;
#N canvas 467 216 450 300 @hv_obj 0;
#X obj 217 60 inlet~;
#X obj 120 60 inlet~;
#X obj 170 183 outlet~;
#X connect 1 0 2 0;
#X restore 43 119 pd @hv_obj __and~f;
#X obj 148 97 sig~ 1;
#N canvas 249 541 148 189 @hv_obj 0;
#X obj 23 69 -~;
#X obj 23 94 clip~ -1e-37 0;
#X obj 23 18 inlet~;
#X obj 67 19 inlet~;
#X obj 23 159 outlet~;
#X obj 23 136 *~ 1e+37;
#X obj 23 44 min~;
#X obj 23 115 +~ 1e-37;
#X connect 0 0 1 0;
#X connect 1 0 7 0;
#X connect 2 0 6 0;
#X connect 3 0 6 1;
#X connect 3 0 0 1;
#X connect 5 0 4 0;
#X connect 6 0 0 0;
#X connect 7 0 5 0;
#X restore 43 71 pd @hv_obj __gte~f;
#X connect 0 0 5 1;
#X connect 1 0 5 0;
#X connect 3 0 2 0;
#X connect 4 0 3 1;
#X connect 5 0 3 0;
#X restore 164 154 pd gte;
#N canvas 0 22 281 183 lte 0;
#X obj 150 34 inlet~;
#X obj 45 34 inlet~;
#X obj 45 129 outlet~;
#N canvas 467 216 450 300 @hv_obj 0;
#X obj 217 60 inlet~;
#X obj 120 60 inlet~;
#X obj 170 183 outlet~;
#X connect 1 0 2 0;
#X restore 45 105 pd @hv_obj __and~f;
#X obj 150 83 sig~ 1;
#N canvas 715 101 191 233 @hv_obj 0;
#X obj 49 83 -~;
#X obj 50 109 clip~ -1e-37 0;
#X obj 49 32 inlet~;
#X obj 93 33 inlet~;
#X obj 50 174 outlet~;
#X obj 50 151 *~ 1e+37;
#X obj 49 58 min~;
#X obj 50 130 +~ 1e-37;
#X connect 0 0 1 0;
#X connect 1 0 7 0;
#X connect 2 0 6 0;
#X connect 2 0 0 1;
#X connect 3 0 6 1;
#X connect 5 0 4 0;
#X connect 6 0 0 0;
#X connect 7 0 5 0;
#X restore 45 57 pd @hv_obj __lte~f;
#X connect 0 0 5 1;
#X connect 1 0 5 0;
#X connect 3 0 2 0;
#X connect 4 0 3 1;
#X connect 5 0 3 0;
#X restore 229 154 pd lte;
#X obj 65 257 +~;
#X obj 264 101 sig~ 0;
#X obj 256 206 *~;
#X obj 338 206 *~;
#X obj 244 290 -~;
#X obj 340 289 *~ -1;
#X connect 0 0 9 0;
#X connect 0 0 13 0;
#X connect 1 0 7 0;
#X connect 1 0 8 0;
#X connect 2 0 11 1;
#X connect 2 0 12 1;
#X connect 7 0 11 0;
#X connect 8 0 12 0;
#X connect 9 0 3 0;
#X connect 10 0 7 1;
#X connect 10 0 8 1;
#X connect 11 0 9 1;
#X connect 11 0 13 1;
#X connect 12 0 4 0;
#X connect 12 0 14 0;
#X connect 13 0 5 0;
#X connect 14 0 6 0;
#X restore 136 443 pd location;
#X obj 351 341 sqrt~;
#X obj 206 301 /~;
#X connect 0 0 1 0;
#X connect 0 1 1 1;
#X connect 1 0 2 0;
#X connect 1 1 3 0;
#X connect 4 0 13 0;
#X connect 4 0 16 1;
#X connect 4 0 19 1;
#X connect 5 0 8 0;
#X connect 5 0 10 1;
#X connect 5 0 10 0;
#X connect 6 0 13 1;
#X connect 7 0 0 0;
#X connect 8 0 9 0;
#X connect 9 0 19 0;
#X connect 10 0 11 0;
#X connect 11 0 14 0;
#X connect 11 0 17 1;
#X connect 12 0 11 1;
#X connect 13 0 12 0;
#X connect 14 0 18 0;
#X connect 15 0 16 0;
#X connect 16 0 17 2;
#X connect 17 0 0 2;
#X connect 17 1 0 3;
#X connect 17 2 1 2;
#X connect 17 3 1 3;
#X connect 18 0 15 0;
#X connect 19 0 17 0;
#X restore 51 215 pd zeros;
#X obj 51 155 *~;
#N canvas 354 142 470 501 poles 0;
#X obj 63 335 cpole~;
#X obj 63 376 cpole~;
#X obj 63 433 outlet~;
#X obj 63 44 inlet~;
#X obj 113 44 inlet~;
#X obj 176 44 inlet~ a1;
#X obj 324 39 inlet~ a2;
#N canvas 490 269 488 402 location 0;
#X obj 63 64 inlet~;
#X obj 165 71 inlet~;
#X obj 334 70 inlet~;
#X obj 63 314 outlet~;
#X obj 132 316 outlet~;
#X obj 244 317 outlet~;
#X obj 336 319 outlet~;
#N canvas 0 22 450 300 gte 0;
#X obj 148 48 inlet~;
#X obj 43 48 inlet~;
#X obj 43 143 outlet~;
#N canvas 467 216 450 300 @hv_obj 0;
#X obj 217 60 inlet~;
#X obj 120 60 inlet~;
#X obj 170 183 outlet~;
#X connect 1 0 2 0;
#X restore 43 119 pd @hv_obj __and~f;
#X obj 148 97 sig~ 1;
#N canvas 249 541 148 189 @hv_obj 0;
#X obj 23 69 -~;
#X obj 23 94 clip~ -1e-37 0;
#X obj 23 18 inlet~;
#X obj 67 19 inlet~;
#X obj 23 159 outlet~;
#X obj 23 136 *~ 1e+37;
#X obj 23 44 min~;
#X obj 23 115 +~ 1e-37;
#X connect 0 0 1 0;
#X connect 1 0 7 0;
#X connect 2 0 6 0;
#X connect 3 0 6 1;
#X connect 3 0 0 1;
#X connect 5 0 4 0;
#X connect 6 0 0 0;
#X connect 7 0 5 0;
#X restore 43 71 pd @hv_obj __gte~f;
#X connect 0 0 5 1;
#X connect 1 0 5 0;
#X connect 3 0 2 0;
#X connect 4 0 3 1;
#X connect 5 0 3 0;
#X restore 164 154 pd gte;
#N canvas 0 22 281 183 lte 0;
#X obj 150 34 inlet~;
#X obj 45 34 inlet~;
#X obj 45 129 outlet~;
#N canvas 467 216 450 300 @hv_obj 0;
#X obj 217 60 inlet~;
#X obj 120 60 inlet~;
#X obj 170 183 outlet~;
#X connect 1 0 2 0;
#X restore 45 105 pd @hv_obj __and~f;
#X obj 150 83 sig~ 1;
#N canvas 715 101 191 233 @hv_obj 0;
#X obj 49 83 -~;
#X obj 50 109 clip~ -1e-37 0;
#X obj 49 32 inlet~;
#X obj 93 33 inlet~;
#X obj 50 174 outlet~;
#X obj 50 151 *~ 1e+37;
#X obj 49 58 min~;
#X obj 50 130 +~ 1e-37;
#X connect 0 0 1 0;
#X connect 1 0 7 0;
#X connect 2 0 6 0;
#X connect 2 0 0 1;
#X connect 3 0 6 1;
#X connect 5 0 4 0;
#X connect 6 0 0 0;
#X connect 7 0 5 0;
#X restore 45 57 pd @hv_obj __lte~f;
#X connect 0 0 5 1;
#X connect 1 0 5 0;
#X connect 3 0 2 0;
#X connect 4 0 3 1;
#X connect 5 0 3 0;
#X restore 229 154 pd lte;
#X obj 65 257 +~;
#X obj 264 101 sig~ 0;
#X obj 256 206 *~;
#X obj 338 206 *~;
#X obj 244 290 -~;
#X obj 340 289 *~ -1;
#X connect 0 0 9 0;
#X connect 0 0 13 0;
#X connect 1 0 7 0;
#X connect 1 0 8 0;
#X connect 2 0 11 1;
#X connect 2 0 12 1;
#X connect 7 0 11 0;
#X connect 8 0 12 0;
#X connect 9 0 3 0;
#X connect 10 0 7 1;
#X connect 10 0 8 1;
#X connect 11 0 9 1;
#X connect 11 0 13 1;
#X connect 12 0 4 0;
#X connect 12 0 14 0;
#X connect 13 0 5 0;
#X connect 14 0 6 0;
#X restore 85 309 pd location;
#X obj 161 144 *~ 0.5;
#X obj 248 141 *~;
#X obj 248 174 +~;
#X obj 298 136 *~ 4;
#X obj 248 196 abs~;
#X obj 248 240 *~ 0.5;
#X obj 248 218 sqrt~;
#X connect 0 0 1 0;
#X connect 0 1 1 1;
#X connect 1 0 2 0;
#X connect 3 0 0 0;
#X connect 4 0 0 1;
#X connect 5 0 8 0;
#X connect 5 0 9 0;
#X connect 5 0 9 1;
#X connect 6 0 11 0;
#X connect 7 0 0 2;
#X connect 7 1 0 3;
#X connect 7 2 1 2;
#X connect 7 3 1 3;
#X connect 8 0 7 0;
#X connect 9 0 10 0;
#X connect 10 0 7 1;
#X connect 10 0 12 0;
#X connect 11 0 10 1;
#X connect 12 0 14 0;
#X connect 13 0 7 2;
#X connect 14 0 13 0;
#X restore 51 275 pd poles;
#X obj 51 330 outlet~;
#X obj 347 97 *~ -1;
#X obj 417 97 *~ -1;
#X connect 0 0 6 1;
#X connect 0 0 7 1;
#X connect 1 0 6 2;
#X connect 2 0 6 3;
#X connect 3 0 10 0;
#X connect 4 0 11 0;
#X connect 5 0 7 0;
#X connect 6 0 8 0;
#X connect 6 1 8 1;
#X connect 7 0 6 0;
#X connect 8 0 9 0;
#X connect 10 0 8 2;
#X connect 11 0 8 3;
#X restore 35 153 pd @hv_obj biquad;
#X obj 94 43 inlet freq;
#X obj 217 44 inlet q;
#N canvas 0 22 173 173 s 0;
#X obj 37 46 inlet;
#X obj 37 90 line~;
#X obj 37 112 outlet~;
#X msg 37 68 \$1 10;
#X connect 0 0 3 0;
#X connect 1 0 2 0;
#X connect 3 0 1 0;
#X restore 94 110 pd s;
#N canvas 0 22 173 173 s 0;
#X obj 37 46 inlet;
#X obj 37 90 line~;
#X obj 37 112 outlet~;
#X msg 37 68 \$1 10;
#X connect 0 0 3 0;
#X connect 1 0 2 0;
#X connect 3 0 1 0;
#X restore 124 110 pd s;
#N canvas 0 22 173 173 s 0;
#X obj 37 46 inlet;
#X obj 37 90 line~;
#X obj 37 112 outlet~;
#X msg 37 68 \$1 10;
#X connect 0 0 3 0;
#X connect 1 0 2 0;
#X connect 3 0 1 0;
#X restore 155 110 pd s;
#N canvas 0 22 173 173 s 0;
#X obj 37 46 inlet;
#X obj 37 90 line~;
#X obj 37 112 outlet~;
#X msg 37 68 \$1 10;
#X connect 0 0 3 0;
#X connect 1 0 2 0;
#X connect 3 0 1 0;
#X restore 186 110 pd s;
#N canvas 0 22 173 173 s 0;
#X obj 37 46 inlet;
#X obj 37 90 line~;
#X obj 37 112 outlet~;
#X msg 37 68 \$1 10;
#X connect 0 0 3 0;
#X connect 1 0 2 0;
#X connect 3 0 1 0;
#X restore 217 110 pd s;
#X obj 94 73 allpass.coeffs \$1 \$2;
#X connect 1 0 2 0;
#X connect 2 0 0 0;
#X connect 3 0 10 0;
#X connect 4 0 10 1;
#X connect 5 0 2 1;
#X connect 6 0 2 2;
#X connect 7 0 2 3;
#X connect 8 0 2 4;
#X connect 9 0 2 5;
#X connect 10 0 5 0;
#X connect 10 1 6 0;
#X connect 10 2 7 0;
#X connect 10 3 8 0;
#X connect 10 4 9 0;
