#N canvas 356 22 613 703 10;
#N canvas 0 22 783 567 hz2rad 0;
#X obj 194 113 samplerate~;
#X obj 194 71 loadbang;
#X obj 194 185 atan;
#X msg 194 160 1;
#X text 382 53 w = 2 * pi * f / SR;
#X obj 194 207 * 8;
#X obj 194 137 t b a;
#X obj 194 230 / 44100;
#X text 260 232 2 * pi / SR;
#X obj 119 269 *;
#X obj 119 35 inlet;
#X obj 119 298 outlet;
#X text 175 300 w(rad);
#X text 167 35 freq(Hz);
#X connect 0 0 6 0;
#X connect 1 0 0 0;
#X connect 2 0 5 0;
#X connect 3 0 2 0;
#X connect 5 0 7 0;
#X connect 6 0 3 0;
#X connect 6 1 7 1;
#X connect 7 0 9 1;
#X connect 9 0 11 0;
#X connect 10 0 9 0;
#X restore 41 346 pd hz2rad;
#X obj 41 376 t f f;
#X obj 109 406 sin;
#X obj 41 406 cos;
#X obj 109 446 s \$0-wsin;
#X obj 41 446 s \$0-wcos;
#X obj 41 286 clip 20 20000;
#X obj 203 286 clip 0.1 100;
#X obj 138 316 r \$0-wsin;
#X obj 188 446 s \$0-alpha;
#X msg 203 316 1 \$1;
#X obj 203 346 /;
#X obj 188 376 *;
#X obj 188 406 * 0.5;
#N canvas 346 735 450 300 b0 0;
#X obj 124 65 r \$0-wsin;
#X obj 124 99 * 0.5;
#X obj 124 131 outlet;
#X connect 0 0 1 0;
#X connect 1 0 2 0;
#X restore 118 606 pd b0;
#N canvas 864 719 450 300 b2 0;
#X obj 124 119 outlet;
#X obj 124 65 r \$0-wsin;
#X obj 124 87 * -0.5;
#X connect 1 0 2 0;
#X connect 2 0 0 0;
#X restore 202 606 pd b2;
#N canvas 0 22 450 300 a0 0;
#X obj 194 65 r \$0-alpha;
#X obj 194 200 outlet;
#X obj 194 139 + 1;
#X connect 0 0 2 0;
#X connect 2 0 1 0;
#X restore 37 486 pd a0;
#N canvas 616 345 450 300 a1 0;
#X obj 194 109 outlet;
#X obj 194 65 r \$0-wcos;
#X obj 194 87 * -2;
#X connect 1 0 2 0;
#X connect 2 0 0 0;
#X restore 244 606 pd a1;
#N canvas 0 22 450 300 a2 0;
#X obj 196 65 r \$0-alpha;
#X obj 196 187 outlet;
#X msg 196 129 1 \$1;
#X obj 196 151 -;
#X connect 0 0 2 0;
#X connect 2 0 3 0;
#X connect 3 0 1 0;
#X restore 286 606 pd a2;
#X text 308 83 (b0/a0) + (b1/a0)*z^(-1) + (b2/a0)*z^(-2);
#X obj 22 516 f;
#X msg 22 546 1 \$1;
#X obj 22 576 /;
#X obj 22 666 *;
#X obj 146 666 *;
#X obj 208 667 *;
#X obj 271 667 *;
#X text 270 424 w0 = 2*pi*f0*Fs;
#X text 270 444 alpha = sin(w0)/(2*Q);
#X obj 197 81 t b f;
#X obj 22 61 inlet freq;
#X obj 197 61 inlet q;
#X obj 103 61 loadbang;
#X text 379 610 a0 = 1 + alpha;
#X text 311 120 1 + (a1/a0)*z^(-1) + (a2/a0)*z^(-2);
#X text 267 59 Audio-Cookbook:;
#X text 267 149 http://musicdsp.org/files/Audio-EQ-Cookbook.txt;
#X text 269 101 H(z) = -----------------------------------------;
#X obj 22 191 t b a b;
#X obj 84 708 outlet b1;
#X obj 146 708 outlet b2;
#X obj 208 708 outlet a1;
#X obj 271 708 outlet a2;
#X text 19 10 Bandpass filter with Q - biquad filter coefficient generator
;
#X text 379 690 b1 = 0;
#X obj 22 606 t f f f f;
#X obj 22 708 outlet b0;
#X obj 22 152 f \$1;
#X obj 203 249 f \$2;
#X text 19 32 constant skirt gain \, peak gain = Q;
#X text 341 288 BPF: H(s) = s / (s^2 + s/Q + 1) (constant skirt gain
\, peak gain = Q) b0 = sin(w0)/2 = Q*alpha b1 = 0 b2 = -sin(w0)/2 =
-Q*alpha a0 = 1 + alpha a1 = -2*cos(w0) a2 = 1 - alpha;
#X text 379 650 a2 = 1 - alpha;
#X text 379 630 a1 = -2*cos(w0);
#X text 379 670 b0 = sin(w0)/2 = Q*alpha;
#X text 379 710 b2 = -sin(w0)/2 = -Q*alpha;
#X text 368 590 BPF: (constant skirt gain);
#X connect 0 0 1 0;
#X connect 1 0 3 0;
#X connect 1 1 2 0;
#X connect 2 0 4 0;
#X connect 3 0 5 0;
#X connect 6 0 0 0;
#X connect 7 0 10 0;
#X connect 8 0 12 0;
#X connect 10 0 11 0;
#X connect 11 0 12 1;
#X connect 12 0 13 0;
#X connect 13 0 9 0;
#X connect 14 0 23 1;
#X connect 15 0 24 1;
#X connect 16 0 20 1;
#X connect 17 0 25 1;
#X connect 18 0 26 1;
#X connect 20 0 21 0;
#X connect 21 0 22 0;
#X connect 22 0 45 0;
#X connect 23 0 46 0;
#X connect 24 0 40 0;
#X connect 25 0 41 0;
#X connect 26 0 42 0;
#X connect 29 0 47 0;
#X connect 29 1 48 1;
#X connect 30 0 47 0;
#X connect 31 0 29 0;
#X connect 32 0 47 0;
#X connect 38 0 20 0;
#X connect 38 1 6 0;
#X connect 38 2 48 0;
#X connect 45 0 23 0;
#X connect 45 1 24 0;
#X connect 45 2 25 0;
#X connect 45 3 26 0;
#X connect 47 0 38 0;
#X connect 48 0 7 0;
