#N canvas 233 23 883 755 10;
#N canvas 0 22 783 567 hz2rad 0;
#X obj 194 113 samplerate~;
#X obj 194 71 loadbang;
#X obj 194 185 atan;
#X msg 194 160 1;
#X text 382 53 w = 2 * pi * f / SR;
#X obj 194 207 * 8;
#X obj 194 137 t b a;
#X obj 194 230 / 44100;
#X text 260 232 2 * pi / SR;
#X obj 119 269 *;
#X obj 119 35 inlet;
#X obj 119 298 outlet;
#X text 175 300 w(rad);
#X text 167 35 freq(Hz);
#X connect 0 0 6 0;
#X connect 1 0 0 0;
#X connect 2 0 5 0;
#X connect 3 0 2 0;
#X connect 5 0 7 0;
#X connect 6 0 3 0;
#X connect 6 1 7 1;
#X connect 7 0 9 1;
#X connect 9 0 11 0;
#X connect 10 0 9 0;
#X restore 45 337 pd hz2rad;
#X obj 45 367 t f f;
#X obj 113 397 sin;
#X obj 45 397 cos;
#X obj 113 437 s \$0-wsin;
#X obj 45 437 s \$0-wcos;
#X obj 45 277 clip 20 20000;
#X obj 217 277 clip 0.1 100;
#X obj 142 307 r \$0-wsin;
#X obj 229 441 s \$0-alpha;
#X msg 217 307 1 \$1;
#X obj 217 337 /;
#X obj 202 367 *;
#X obj 202 397 * 0.5;
#X text 394 132 (b0/a0) + (b1/a0)*z^(-1) + (b2/a0)*z^(-2);
#X obj 26 507 f;
#X msg 26 537 1 \$1;
#X obj 26 567 /;
#X obj 26 657 *;
#X obj 88 657 *;
#X obj 150 657 *;
#X obj 212 658 *;
#X obj 275 658 *;
#X obj 211 72 t b f;
#X obj 26 52 inlet freq;
#X obj 211 52 inlet q;
#X obj 116 53 loadbang;
#X text 397 169 1 + (a1/a0)*z^(-1) + (a2/a0)*z^(-2);
#X text 353 108 Audio-Cookbook:;
#X text 353 198 http://musicdsp.org/files/Audio-EQ-Cookbook.txt;
#X text 355 150 H(z) = -----------------------------------------;
#X obj 26 182 t b a b;
#X obj 26 699 outlet b0;
#X obj 88 699 outlet b1;
#X obj 150 699 outlet b2;
#X obj 212 699 outlet a1;
#X obj 275 699 outlet a2;
#N canvas 601 52 421 370 b0 0;
#X obj 38 41 r \$0-wcos;
#X obj 38 309 outlet;
#X obj 53 110 - 1;
#X obj 38 163 *;
#X obj 83 157 + 1;
#X obj 112 41 r \$0-A;
#X obj 112 73 t f f f;
#X obj 38 279 *;
#X obj 38 191 +;
#X obj 38 247 +;
#X obj 53 222 r \$0-sqrtA-alpha-2;
#X connect 0 0 3 0;
#X connect 2 0 3 1;
#X connect 3 0 8 0;
#X connect 4 0 8 1;
#X connect 5 0 6 0;
#X connect 6 0 2 0;
#X connect 6 1 4 0;
#X connect 6 2 7 1;
#X connect 7 0 1 0;
#X connect 8 0 9 0;
#X connect 9 0 7 0;
#X connect 10 0 9 1;
#X restore 120 597 pd b0;
#N canvas 0 22 383 345 b1 0;
#X obj 55 287 outlet;
#X obj 55 45 r \$0-wcos;
#X obj 128 46 r \$0-A;
#X obj 87 177 - 1;
#X obj 70 125 + 1;
#X obj 55 175 *;
#X obj 128 78 t f f f;
#X obj 55 243 *;
#X obj 55 211 +;
#X obj 167 164 * -2;
#X connect 1 0 5 0;
#X connect 2 0 6 0;
#X connect 3 0 8 1;
#X connect 4 0 5 1;
#X connect 5 0 8 0;
#X connect 6 0 4 0;
#X connect 6 1 3 0;
#X connect 6 2 9 0;
#X connect 7 0 0 0;
#X connect 8 0 7 0;
#X connect 9 0 7 1;
#X restore 164 597 pd b1;
#N canvas 0 22 238 367 b2 0;
#X obj 38 41 r \$0-wcos;
#X obj 38 309 outlet;
#X obj 53 113 - 1;
#X obj 38 163 *;
#X obj 38 191 +;
#X obj 80 163 + 1;
#X obj 112 41 r \$0-A;
#X obj 38 247 -;
#X obj 112 73 t f f f;
#X obj 38 279 *;
#X obj 53 222 r \$0-sqrtA-alpha-2;
#X connect 0 0 3 0;
#X connect 2 0 3 1;
#X connect 3 0 4 0;
#X connect 4 0 7 0;
#X connect 5 0 4 1;
#X connect 6 0 8 0;
#X connect 7 0 9 0;
#X connect 8 0 2 0;
#X connect 8 1 5 0;
#X connect 8 2 9 1;
#X connect 9 0 1 0;
#X connect 10 0 7 1;
#X restore 208 597 pd b2;
#N canvas 0 22 368 357 a1 0;
#X obj 55 287 outlet;
#X obj 55 45 r \$0-wcos;
#X obj 128 46 r \$0-A;
#X obj 155 104 - 1;
#X obj 55 221 +;
#X obj 70 121 + 1;
#X obj 55 175 *;
#X obj 128 78 t f f;
#X obj 55 253 * 2;
#X obj 70 143 * -1;
#X connect 1 0 6 0;
#X connect 2 0 7 0;
#X connect 3 0 4 1;
#X connect 4 0 8 0;
#X connect 5 0 9 0;
#X connect 6 0 4 0;
#X connect 7 0 5 0;
#X connect 7 1 3 0;
#X connect 8 0 0 0;
#X connect 9 0 6 1;
#X restore 250 597 pd a1;
#N canvas 275 137 208 373 a2 0;
#X obj 38 41 r \$0-wcos;
#X obj 38 319 outlet;
#X obj 53 133 - 1;
#X obj 38 183 *;
#X obj 38 221 +;
#X obj 80 197 + 1;
#X obj 53 87 r \$0-A;
#X obj 53 109 t f f;
#X obj 38 287 -;
#X obj 53 155 * -1;
#X obj 53 253 r \$0-sqrtA-alpha-2;
#X connect 0 0 3 0;
#X connect 2 0 9 0;
#X connect 3 0 4 0;
#X connect 4 0 8 0;
#X connect 5 0 4 1;
#X connect 6 0 7 0;
#X connect 7 0 2 0;
#X connect 7 1 5 0;
#X connect 8 0 1 0;
#X connect 9 0 3 1;
#X connect 10 0 8 1;
#X restore 290 597 pd a2;
#X obj 315 277 clip -24 24;
#X obj 342 450 s \$0-A;
#X obj 315 307 / 40;
#X obj 315 337 t b f;
#X msg 315 367 10;
#X obj 315 397 pow 0;
#X obj 288 50 inlet dBGain;
#X obj 288 70 t b f;
#X text 407 395 w0 = 2*pi*f0*Fs;
#X text 407 435 A = 10^(dbGain/40);
#X text 407 415 alpha = sin(w0)/(2*Q);
#N canvas 44 48 285 374 a0 0;
#X obj 38 41 r \$0-wcos;
#X obj 38 319 outlet;
#X obj 53 133 - 1;
#X obj 38 193 *;
#X obj 38 221 +;
#X obj 80 197 + 1;
#X obj 53 87 r \$0-A;
#X obj 53 109 t f f;
#X obj 38 287 +;
#X obj 53 157 * -1;
#X obj 53 253 r \$0-sqrtA-alpha-2;
#X connect 0 0 3 0;
#X connect 2 0 9 0;
#X connect 3 0 4 0;
#X connect 4 0 8 0;
#X connect 5 0 4 1;
#X connect 6 0 7 0;
#X connect 7 0 2 0;
#X connect 7 1 5 0;
#X connect 8 0 1 0;
#X connect 9 0 3 1;
#X connect 10 0 8 1;
#X restore 41 480 pd a0;
#X obj 26 143 f \$1;
#X obj 217 240 f \$2;
#X obj 315 241 f \$3;
#X obj 116 75 t b b;
#X obj 217 477 sqrt;
#X obj 217 499 * 2;
#X obj 202 521 *;
#X obj 202 419 t f f;
#X obj 26 597 t f f f f f;
#X obj 315 419 t f f;
#X text 23 21 High shelving filter with Q and gain - biquad filter
coefficient generator;
#X text 357 581 High Shelf:;
#X text 371 662 b0 = A*( (A+1) + (A-1)*cos(wc) + 2*sqrt(A)*alpha);
#X text 371 682 b1 = -2*A*( (A-1) + (A+1)*cos(wc));
#X text 371 702 b2 = A*((A+1) + (A-1)*cos(wc) - 2*sqrt(A)*alpha);
#X text 371 602 a0 = (A+1) - (A-1)*cos(wc) + 2*sqrt(A)*alpha;
#X text 371 622 a1 = 2*((A-1) - (A+1)*cos(wc));
#X text 371 642 a2 = (A+1) - (A-1)*cos(wc) - 2*sqrt(A)*alpha;
#X obj 202 543 s \$0-sqrtA-alpha-2;
#X connect 0 0 1 0;
#X connect 1 0 3 0;
#X connect 1 1 2 0;
#X connect 2 0 4 0;
#X connect 3 0 5 0;
#X connect 6 0 0 0;
#X connect 7 0 10 0;
#X connect 8 0 12 0;
#X connect 10 0 11 0;
#X connect 11 0 12 1;
#X connect 12 0 13 0;
#X connect 13 0 61 0;
#X connect 15 0 16 0;
#X connect 16 0 17 0;
#X connect 17 0 62 0;
#X connect 18 0 32 0;
#X connect 19 0 33 0;
#X connect 20 0 34 0;
#X connect 21 0 35 0;
#X connect 22 0 36 0;
#X connect 23 0 54 0;
#X connect 23 1 55 1;
#X connect 24 0 54 0;
#X connect 25 0 23 0;
#X connect 26 0 57 0;
#X connect 31 0 15 0;
#X connect 31 1 6 0;
#X connect 31 2 55 0;
#X connect 37 0 18 1;
#X connect 38 0 19 1;
#X connect 39 0 20 1;
#X connect 40 0 21 1;
#X connect 41 0 22 1;
#X connect 42 0 44 0;
#X connect 44 0 45 0;
#X connect 45 0 46 0;
#X connect 45 1 47 1;
#X connect 46 0 47 0;
#X connect 47 0 63 0;
#X connect 48 0 49 0;
#X connect 49 0 54 0;
#X connect 49 1 56 0;
#X connect 53 0 15 1;
#X connect 54 0 31 0;
#X connect 55 0 7 0;
#X connect 56 0 42 0;
#X connect 57 0 54 0;
#X connect 57 1 56 0;
#X connect 58 0 59 0;
#X connect 59 0 60 1;
#X connect 60 0 72 0;
#X connect 61 0 60 0;
#X connect 61 1 9 0;
#X connect 62 0 18 0;
#X connect 62 1 19 0;
#X connect 62 2 20 0;
#X connect 62 3 21 0;
#X connect 62 4 22 0;
#X connect 63 0 58 0;
#X connect 63 1 43 0;
