#N canvas 547 134 631 755 10;
#N canvas 0 22 783 567 hz2rad 0;
#X obj 194 113 samplerate~;
#X obj 194 71 loadbang;
#X obj 194 185 atan;
#X msg 194 160 1;
#X text 382 53 w = 2 * pi * f / SR;
#X obj 194 207 * 8;
#X obj 194 137 t b a;
#X obj 194 230 / 44100;
#X text 260 232 2 * pi / SR;
#X obj 119 269 *;
#X obj 119 35 inlet;
#X obj 119 298 outlet;
#X text 175 300 w(rad);
#X text 167 35 freq(Hz);
#X connect 0 0 6 0;
#X connect 1 0 0 0;
#X connect 2 0 5 0;
#X connect 3 0 2 0;
#X connect 5 0 7 0;
#X connect 6 0 3 0;
#X connect 6 1 7 1;
#X connect 7 0 9 1;
#X connect 9 0 11 0;
#X connect 10 0 9 0;
#X restore 52 354 pd hz2rad;
#X obj 52 384 t f f;
#X obj 120 414 sin;
#X obj 52 414 cos;
#X obj 120 454 s \$0-wsin;
#X obj 52 454 s \$0-wcos;
#X obj 52 294 clip 20 20000;
#X obj 226 294 clip 0.1 100;
#X obj 151 324 r \$0-wsin;
#X obj 211 454 s \$0-alpha;
#X msg 226 324 1 \$1;
#X obj 226 354 /;
#X obj 211 384 *;
#X obj 211 414 * 0.5;
#N canvas 1288 285 450 300 b0 0;
#X obj 54 65 r \$0-wcos;
#X obj 124 65 r \$0-wsin;
#X obj 194 65 r \$0-alpha;
#X obj 54 181 outlet;
#X obj 54 136 * 0.5;
#X obj 54 107 + 1;
#X connect 0 0 5 0;
#X connect 4 0 3 0;
#X connect 5 0 4 0;
#X restore 201 654 pd b0;
#N canvas 1224 264 450 300 b1 0;
#X obj 54 65 r \$0-wcos;
#X obj 124 65 r \$0-wsin;
#X obj 194 65 r \$0-alpha;
#X obj 54 178 outlet;
#X obj 54 107 + 1;
#X obj 54 137 * -1;
#X connect 0 0 4 0;
#X connect 4 0 5 0;
#X connect 5 0 3 0;
#X restore 241 654 pd b1;
#N canvas 1219 308 450 300 b2 0;
#X obj 54 65 r \$0-wcos;
#X obj 124 65 r \$0-wsin;
#X obj 194 65 r \$0-alpha;
#X obj 54 198 outlet;
#X obj 54 136 * 0.5;
#X obj 54 107 + 1;
#X connect 0 0 5 0;
#X connect 4 0 3 0;
#X connect 5 0 4 0;
#X restore 281 654 pd b2;
#N canvas 0 22 450 300 a0 0;
#X obj 54 65 r \$0-wcos;
#X obj 124 65 r \$0-wsin;
#X obj 194 65 r \$0-alpha;
#X obj 194 200 outlet;
#X obj 194 139 + 1;
#X connect 2 0 4 0;
#X connect 4 0 3 0;
#X restore 50 534 pd a0;
#N canvas 0 22 450 300 a1 0;
#X obj 54 65 r \$0-wcos;
#X obj 124 65 r \$0-wsin;
#X obj 194 65 r \$0-alpha;
#X obj 54 198 outlet;
#X obj 54 127 * -2;
#X connect 0 0 4 0;
#X connect 4 0 3 0;
#X restore 121 654 pd a1;
#N canvas 0 22 450 300 a2 0;
#X obj 54 65 r \$0-wcos;
#X obj 124 65 r \$0-wsin;
#X obj 196 65 r \$0-alpha;
#X obj 196 187 outlet;
#X msg 196 129 1 \$1;
#X obj 196 151 -;
#X connect 2 0 4 0;
#X connect 4 0 5 0;
#X connect 5 0 3 0;
#X restore 161 654 pd a2;
#X text 302 829 H = -----------------------------;
#X text 331 813 ff1 + ff2*z^(-1) + ff3*z^(-2);
#X text 332 849 1 - fb1*z^(-1) - fb2*z^(-2);
#X text 296 704 Audio-Cookbook:;
#X text 328 756 1 + (-a1/a0)*z^(-1) + (-a2/a0)*z^(-2);
#X text 298 736 H = -----------------------------------------;
#X text 327 723 (b0/a0) + (b1/a0)*z^(-1) + (b2/a0)*z^(-2);
#X obj 35 564 f;
#X msg 35 594 1 \$1;
#X obj 35 624 /;
#X obj 35 714 *;
#X obj 35 654 t f f f f f;
#X obj 75 714 *;
#X obj 115 714 *;
#X obj 155 714 *;
#X obj 195 714 *;
#X text 135 807 fb1 fb2 ff1 ff2 ff3;
#X obj 35 806 pack f f f f f;
#X obj 35 734 * -1;
#X obj 75 734 * -1;
#X text 295 792 Pd biquad~:;
#X text 293 432 w0 = 2*pi*f0*Fs;
#X text 293 452 alpha = sin(w0)/(2*Q);
#X obj 35 866 outlet;
#X obj 35 179 t b a b b;
#X obj 220 69 t b f;
#X obj 35 49 inlet freq;
#X obj 220 49 inlet q;
#X obj 60 89 loadbang;
#X obj 35 140 f 500;
#X obj 226 257 f \$1;
#X text 156 509 a0 = 1 + alpha;
#X text 156 549 a2 = 1 - alpha;
#X text 156 529 a1 = -2*cos(w0);
#X text 156 589 b1 = -(1 + cos(w0));
#X text 156 609 b2 = (1 + cos(w0))/2;
#X text 156 569 b0 = (1 + cos(w0))/2;
#X text 30 13 biquad~ filter coefficient generator for hipass with
Q;
#X connect 0 0 1 0;
#X connect 1 0 3 0;
#X connect 1 1 2 0;
#X connect 2 0 4 0;
#X connect 3 0 5 0;
#X connect 6 0 0 0;
#X connect 7 0 10 0;
#X connect 8 0 12 0;
#X connect 10 0 11 0;
#X connect 11 0 12 1;
#X connect 12 0 13 0;
#X connect 13 0 9 0;
#X connect 14 0 33 1;
#X connect 15 0 34 1;
#X connect 16 0 35 1;
#X connect 17 0 27 1;
#X connect 18 0 30 1;
#X connect 19 0 32 1;
#X connect 27 0 28 0;
#X connect 28 0 29 0;
#X connect 29 0 31 0;
#X connect 30 0 38 0;
#X connect 31 0 30 0;
#X connect 31 1 32 0;
#X connect 31 2 33 0;
#X connect 31 3 34 0;
#X connect 31 4 35 0;
#X connect 32 0 39 0;
#X connect 33 0 37 2;
#X connect 34 0 37 3;
#X connect 35 0 37 4;
#X connect 37 0 43 0;
#X connect 38 0 37 0;
#X connect 39 0 37 1;
#X connect 44 0 27 0;
#X connect 44 1 6 0;
#X connect 44 2 50 0;
#X connect 45 0 49 0;
#X connect 45 1 50 1;
#X connect 46 0 49 0;
#X connect 47 0 45 0;
#X connect 48 0 49 0;
#X connect 49 0 44 0;
#X connect 50 0 7 0;
