#N canvas 1309 219 590 745 10;
#N canvas 0 22 783 567 hz2rad 0;
#X obj 194 113 samplerate~;
#X obj 194 71 loadbang;
#X obj 194 185 atan;
#X msg 194 160 1;
#X text 382 53 w = 2 * pi * f / SR;
#X obj 194 207 * 8;
#X obj 194 137 t b a;
#X obj 194 230 / 44100;
#X text 260 232 2 * pi / SR;
#X obj 119 269 *;
#X obj 119 35 inlet;
#X obj 119 298 outlet;
#X text 175 300 w(rad);
#X text 167 35 freq(Hz);
#X connect 0 0 6 0;
#X connect 1 0 0 0;
#X connect 2 0 5 0;
#X connect 3 0 2 0;
#X connect 5 0 7 0;
#X connect 6 0 3 0;
#X connect 6 1 7 1;
#X connect 7 0 9 1;
#X connect 9 0 11 0;
#X connect 10 0 9 0;
#X restore 41 336 pd hz2rad;
#X obj 41 366 t f f;
#X obj 109 396 sin;
#X obj 41 396 cos;
#X obj 109 436 s \$0-wsin;
#X obj 41 436 s \$0-wcos;
#X obj 41 276 clip 20 20000;
#X obj 213 276 clip 0.1 100;
#X obj 138 306 r \$0-wsin;
#X obj 198 436 s \$0-alpha;
#X msg 213 306 1 \$1;
#X obj 213 336 /;
#X obj 198 366 *;
#X obj 198 396 * 0.5;
#N canvas 1288 285 450 300 b0 0;
#X obj 54 65 r \$0-wcos;
#X obj 124 65 r \$0-wsin;
#X obj 194 65 r \$0-alpha;
#X obj 54 181 outlet;
#X obj 54 146 * 0.5;
#X msg 54 101 1 \$1;
#X obj 54 123 -;
#X connect 0 0 5 0;
#X connect 4 0 3 0;
#X connect 5 0 6 0;
#X connect 6 0 4 0;
#X restore 118 596 pd b0;
#N canvas 1224 264 450 300 b1 0;
#X obj 54 65 r \$0-wcos;
#X obj 124 65 r \$0-wsin;
#X obj 194 65 r \$0-alpha;
#X obj 54 178 outlet;
#X msg 54 116 1 \$1;
#X obj 54 138 -;
#X connect 0 0 4 0;
#X connect 4 0 5 0;
#X connect 5 0 3 0;
#X restore 160 596 pd b1;
#N canvas 1219 308 450 300 b2 0;
#X obj 54 65 r \$0-wcos;
#X obj 124 65 r \$0-wsin;
#X obj 194 65 r \$0-alpha;
#X obj 54 198 outlet;
#X obj 54 146 * 0.5;
#X msg 54 101 1 \$1;
#X obj 54 123 -;
#X connect 0 0 5 0;
#X connect 4 0 3 0;
#X connect 5 0 6 0;
#X connect 6 0 4 0;
#X restore 202 596 pd b2;
#N canvas 0 22 450 300 a0 0;
#X obj 54 65 r \$0-wcos;
#X obj 124 65 r \$0-wsin;
#X obj 194 65 r \$0-alpha;
#X obj 194 200 outlet;
#X obj 194 139 + 1;
#X connect 2 0 4 0;
#X connect 4 0 3 0;
#X restore 37 476 pd a0;
#N canvas 0 22 450 300 a1 0;
#X obj 54 65 r \$0-wcos;
#X obj 124 65 r \$0-wsin;
#X obj 194 65 r \$0-alpha;
#X obj 54 198 outlet;
#X obj 54 127 * -2;
#X connect 0 0 4 0;
#X connect 4 0 3 0;
#X restore 244 596 pd a1;
#N canvas 0 22 450 300 a2 0;
#X obj 54 65 r \$0-wcos;
#X obj 124 65 r \$0-wsin;
#X obj 196 65 r \$0-alpha;
#X obj 196 187 outlet;
#X msg 196 129 1 \$1;
#X obj 196 151 -;
#X connect 2 0 4 0;
#X connect 4 0 5 0;
#X connect 5 0 3 0;
#X restore 286 596 pd a2;
#X text 305 139 (b0/a0) + (b1/a0)*z^(-1) + (b2/a0)*z^(-2);
#X obj 22 506 f;
#X msg 22 536 1 \$1;
#X obj 22 566 /;
#X obj 22 656 *;
#X obj 84 656 *;
#X obj 146 656 *;
#X obj 208 657 *;
#X obj 271 657 *;
#X text 280 414 w0 = 2*pi*f0*Fs;
#X text 280 434 alpha = sin(w0)/(2*Q);
#X obj 207 71 t b f;
#X obj 22 51 inlet freq;
#X obj 207 51 inlet q;
#X text 379 600 a0 = 1 + alpha;
#X text 379 640 a2 = 1 - alpha;
#X text 379 620 a1 = -2*cos(w0);
#X text 379 660 b0 = (1 - cos(w0))/2;
#X text 379 700 b2 = (1 - cos(w0))/2;
#X text 379 680 b1 = (1 - cos(w0));
#X text 308 176 1 + (a1/a0)*z^(-1) + (a2/a0)*z^(-2);
#X text 264 115 Audio-Cookbook:;
#X text 264 205 http://musicdsp.org/files/Audio-EQ-Cookbook.txt;
#X text 266 157 H(z) = -----------------------------------------;
#X text 378 580 LPF:;
#X text 19 20 Lowpass filter with Q - biquad filter coefficient generator
;
#X obj 22 596 t f f f f f b;
#X obj 22 181 t b a b;
#X obj 22 698 outlet b0;
#X obj 84 698 outlet b1;
#X obj 146 698 outlet b2;
#X obj 208 698 outlet a1;
#X obj 271 698 outlet a2;
#X obj 113 51 loadbang;
#X obj 22 142 f \$1;
#X obj 213 239 f \$2;
#X connect 0 0 1 0;
#X connect 1 0 3 0;
#X connect 1 1 2 0;
#X connect 2 0 4 0;
#X connect 3 0 5 0;
#X connect 6 0 0 0;
#X connect 7 0 10 0;
#X connect 8 0 12 0;
#X connect 10 0 11 0;
#X connect 11 0 12 1;
#X connect 12 0 13 0;
#X connect 13 0 9 0;
#X connect 14 0 24 1;
#X connect 15 0 25 1;
#X connect 16 0 26 1;
#X connect 17 0 21 1;
#X connect 18 0 27 1;
#X connect 19 0 28 1;
#X connect 21 0 22 0;
#X connect 22 0 23 0;
#X connect 23 0 46 0;
#X connect 24 0 48 0;
#X connect 25 0 49 0;
#X connect 26 0 50 0;
#X connect 27 0 51 0;
#X connect 28 0 52 0;
#X connect 31 0 54 0;
#X connect 31 1 55 1;
#X connect 32 0 54 0;
#X connect 33 0 31 0;
#X connect 46 0 24 0;
#X connect 46 1 25 0;
#X connect 46 2 26 0;
#X connect 46 3 27 0;
#X connect 46 4 28 0;
#X connect 47 0 21 0;
#X connect 47 1 6 0;
#X connect 47 2 55 0;
#X connect 53 0 54 0;
#X connect 54 0 47 0;
#X connect 55 0 7 0;
