#N canvas 269 22 680 743 10;
#N canvas 0 22 783 567 hz2rad 0;
#X obj 194 113 samplerate~;
#X obj 194 71 loadbang;
#X obj 194 185 atan;
#X msg 194 160 1;
#X text 382 53 w = 2 * pi * f / SR;
#X obj 194 207 * 8;
#X obj 194 137 t b a;
#X obj 194 230 / 44100;
#X text 260 232 2 * pi / SR;
#X obj 119 269 *;
#X obj 119 35 inlet;
#X obj 119 298 outlet;
#X text 175 300 w(rad);
#X text 167 35 freq(Hz);
#X connect 0 0 6 0;
#X connect 1 0 0 0;
#X connect 2 0 5 0;
#X connect 3 0 2 0;
#X connect 5 0 7 0;
#X connect 6 0 3 0;
#X connect 6 1 7 1;
#X connect 7 0 9 1;
#X connect 9 0 11 0;
#X connect 10 0 9 0;
#X restore 46 341 pd hz2rad;
#X obj 46 371 t f f;
#X obj 114 401 sin;
#X obj 46 401 cos;
#X obj 114 441 s \$0-wsin;
#X obj 46 441 s \$0-wcos;
#X obj 46 281 clip 20 20000;
#X obj 218 281 clip 0.1 100;
#X obj 143 311 r \$0-wsin;
#X obj 203 441 s \$0-alpha;
#X msg 218 311 1 \$1;
#X obj 218 341 /;
#X obj 203 371 *;
#X obj 203 401 * 0.5;
#X text 395 136 (b0/a0) + (b1/a0)*z^(-1) + (b2/a0)*z^(-2);
#X obj 27 511 f;
#X msg 27 541 1 \$1;
#X obj 27 571 /;
#X obj 27 661 *;
#X obj 89 661 *;
#X obj 151 661 *;
#X obj 213 662 *;
#X obj 276 662 *;
#X obj 212 76 t b f;
#X obj 27 56 inlet freq;
#X obj 212 56 inlet q;
#X obj 117 57 loadbang;
#X text 398 173 1 + (a1/a0)*z^(-1) + (a2/a0)*z^(-2);
#X text 354 112 Audio-Cookbook:;
#X text 354 202 http://musicdsp.org/files/Audio-EQ-Cookbook.txt;
#X text 356 154 H(z) = -----------------------------------------;
#X obj 27 601 t f f f f f b;
#X obj 27 186 t b a b;
#X obj 27 703 outlet b0;
#X obj 89 703 outlet b1;
#X obj 151 703 outlet b2;
#X obj 213 703 outlet a1;
#X obj 276 703 outlet a2;
#N canvas 0 22 450 300 b0 0;
#X obj 54 65 r \$0-wcos;
#X obj 124 65 r \$0-wsin;
#X obj 272 65 r \$0-A;
#X obj 194 65 r \$0-alpha;
#X obj 194 181 outlet;
#X obj 194 119 *;
#X obj 194 151 + 1;
#X connect 2 0 5 1;
#X connect 3 0 5 0;
#X connect 5 0 6 0;
#X connect 6 0 4 0;
#X restore 121 601 pd b0;
#N canvas 0 22 450 300 b1 0;
#X obj 54 65 r \$0-wcos;
#X obj 124 65 r \$0-wsin;
#X obj 274 65 r \$0-A;
#X obj 194 65 r \$0-alpha;
#X obj 54 178 outlet;
#X obj 54 127 * -2;
#X connect 0 0 5 0;
#X connect 5 0 4 0;
#X restore 165 601 pd b1;
#N canvas 0 22 450 300 b2 0;
#X obj 54 65 r \$0-wcos;
#X obj 124 65 r \$0-wsin;
#X obj 272 65 r \$0-A;
#X obj 194 65 r \$0-alpha;
#X obj 194 198 outlet;
#X obj 194 124 *;
#X msg 194 146 1 \$1;
#X obj 194 168 -;
#X connect 2 0 5 1;
#X connect 3 0 5 0;
#X connect 5 0 6 0;
#X connect 6 0 7 0;
#X connect 7 0 4 0;
#X restore 209 601 pd b2;
#N canvas 0 22 450 300 a1 0;
#X obj 54 65 r \$0-wcos;
#X obj 124 65 r \$0-wsin;
#X obj 274 65 r \$0-A;
#X obj 194 65 r \$0-alpha;
#X obj 54 198 outlet;
#X obj 54 127 * -2;
#X connect 0 0 5 0;
#X connect 5 0 4 0;
#X restore 251 601 pd a1;
#N canvas 0 22 450 300 a2 0;
#X obj 54 65 r \$0-wcos;
#X obj 124 65 r \$0-wsin;
#X obj 268 65 r \$0-A;
#X obj 196 65 r \$0-alpha;
#X obj 196 187 outlet;
#X obj 196 107 /;
#X msg 196 129 1 \$1;
#X obj 196 151 -;
#X connect 2 0 5 1;
#X connect 3 0 5 0;
#X connect 5 0 6 0;
#X connect 6 0 7 0;
#X connect 7 0 4 0;
#X restore 291 601 pd a2;
#X text 372 666 b0 = 1 + alpha*A;
#X text 372 686 b1 = -2*cos(w0);
#X text 372 706 b2 = 1 - alpha*A;
#X text 372 606 a0 = 1 + alpha/A;
#X text 372 626 a1 = -2*cos(w0);
#X text 372 646 a2 = 1 - alpha/A;
#X text 358 585 Peaking EQ:;
#X obj 316 281 clip -24 24;
#X obj 316 441 s \$0-A;
#X obj 316 311 / 40;
#X obj 316 341 t b f;
#X msg 316 371 10;
#X obj 316 401 pow 0;
#X obj 289 54 inlet dBGain;
#X obj 289 74 t b f;
#X text 385 401 w0 = 2*pi*f0*Fs;
#X text 385 441 A = 10^(dbGain/40);
#X text 385 421 alpha = sin(w0)/(2*Q);
#N canvas 0 22 450 300 a0 0;
#X obj 54 65 r \$0-wcos;
#X obj 124 65 r \$0-wsin;
#X obj 270 65 r \$0-A;
#X obj 194 65 r \$0-alpha;
#X obj 194 200 outlet;
#X obj 194 139 + 1;
#X obj 194 117 /;
#X connect 2 0 6 1;
#X connect 3 0 6 0;
#X connect 5 0 4 0;
#X connect 6 0 5 0;
#X restore 42 484 pd a0;
#X obj 27 147 f \$1;
#X obj 218 244 f \$2;
#X obj 316 245 f \$3;
#X obj 117 79 t b b;
#X text 24 25 Peaking EQ with Q and gain - biquad filter coefficient
generator;
#X connect 0 0 1 0;
#X connect 1 0 3 0;
#X connect 1 1 2 0;
#X connect 2 0 4 0;
#X connect 3 0 5 0;
#X connect 6 0 0 0;
#X connect 7 0 10 0;
#X connect 8 0 12 0;
#X connect 10 0 11 0;
#X connect 11 0 12 1;
#X connect 12 0 13 0;
#X connect 13 0 9 0;
#X connect 15 0 16 0;
#X connect 16 0 17 0;
#X connect 17 0 31 0;
#X connect 18 0 33 0;
#X connect 19 0 34 0;
#X connect 20 0 35 0;
#X connect 21 0 36 0;
#X connect 22 0 37 0;
#X connect 23 0 62 0;
#X connect 23 1 63 1;
#X connect 24 0 62 0;
#X connect 25 0 23 0;
#X connect 26 0 65 0;
#X connect 31 0 18 0;
#X connect 31 1 19 0;
#X connect 31 2 20 0;
#X connect 31 3 21 0;
#X connect 31 4 22 0;
#X connect 32 0 15 0;
#X connect 32 1 6 0;
#X connect 32 2 63 0;
#X connect 38 0 18 1;
#X connect 39 0 19 1;
#X connect 40 0 20 1;
#X connect 41 0 21 1;
#X connect 42 0 22 1;
#X connect 50 0 52 0;
#X connect 52 0 53 0;
#X connect 53 0 54 0;
#X connect 53 1 55 1;
#X connect 54 0 55 0;
#X connect 55 0 51 0;
#X connect 56 0 57 0;
#X connect 57 0 62 0;
#X connect 57 1 64 0;
#X connect 61 0 15 1;
#X connect 62 0 32 0;
#X connect 63 0 7 0;
#X connect 64 0 50 0;
#X connect 65 0 62 0;
#X connect 65 1 64 0;
