#N canvas 362 327 333 256 10;
#X obj 96 125 vcf 100 10;
#X obj 88 67 noise~;
#X obj 96 147 *~ 0.1;
#X obj 96 169 dac~;
#X obj 154 29 hsl 128 15 0 127 0 0 empty empty empty -2 -8 0 10 -262144
-1 -1 0 1;
#X obj 151 49 mtof;
#X obj 151 71 sig~;
#X obj 206 79 osc~ 4;
#X floatatom 214 47 5 0 0 0 - - -, f 5;
#X obj 206 101 *~ 0.5;
#X obj 206 123 +~ 0.5;
#X obj 206 145 *~ 2;
#X obj 206 167 *~;
#X obj 206 189 *~ 30;
#X connect 0 0 2 0;
#X connect 1 0 0 0;
#X connect 2 0 3 0;
#X connect 2 0 3 1;
#X connect 4 0 5 0;
#X connect 5 0 6 0;
#X connect 6 0 0 1;
#X connect 7 0 9 0;
#X connect 8 0 7 0;
#X connect 9 0 10 0;
#X connect 10 0 11 0;
#X connect 11 0 12 0;
#X connect 11 0 12 1;
#X connect 12 0 13 0;
#X connect 13 0 0 2;
