#N canvas 73 23 677 717 10;
#X text 319 95 (b0/a0) + (b1/a0)*z^(-1) + (b2/a0)*z^(-2);
#X text 322 132 1 + (a1/a0)*z^(-1) + (a2/a0)*z^(-2);
#X text 278 71 Audio-Cookbook:;
#X text 278 161 http://musicdsp.org/files/Audio-EQ-Cookbook.txt;
#X text 280 113 H(z) = -----------------------------------------;
#X text 19 10 Bandpass filter with Q - biquad filter coefficient generator
;
#X text 19 30 constant 0 dB peak gain;
#N canvas 0 22 591 391 hz2rad 0;
#X obj 194 113 samplerate~;
#X obj 194 71 loadbang;
#X obj 194 185 atan;
#X msg 194 160 1;
#X text 382 53 w = 2 * pi * f / SR;
#X obj 194 207 * 8;
#X obj 194 137 t b a;
#X obj 194 230 / 44100;
#X text 260 232 2 * pi / SR;
#X text 175 300 w(rad);
#X text 167 35 freq(Hz);
#X obj 119 35 inlet~;
#X obj 119 269 *~;
#X obj 119 298 outlet~;
#X connect 0 0 6 0;
#X connect 1 0 0 0;
#X connect 2 0 5 0;
#X connect 3 0 2 0;
#X connect 5 0 7 0;
#X connect 6 0 3 0;
#X connect 6 1 7 1;
#X connect 7 0 12 1;
#X connect 11 0 12 0;
#X connect 12 0 13 0;
#X restore 30 144 pd hz2rad;
#X obj 180 109 clip~ 0.1 100;
#X obj 263 474 s~ \$0-alpha;
#X text 362 316 a0 = 1 + alpha;
#X text 362 396 b1 = 0;
#X text 351 296 BPF: (constant 0dB peak gain);
#X text 362 356 a2 = 1 - alpha;
#X text 362 336 a1 = -2*cos(w0);
#X text 362 376 b0 = sin(w0)/2 = Q*alpha;
#X text 362 416 b2 = -sin(w0)/2 = -Q*alpha;
#X obj 180 269 *~ 2;
#X obj 180 442 /~;
#X obj 195 416 +~;
#X obj 30 326 cos~;
#X obj 30 184 *~ 0.3183;
#X obj 30 224 +~;
#X obj 95 184 *~ 9.886e-06;
#X obj 30 109 clip~ 0 22050;
#X obj 30 246 *~ 0.5;
#X obj 100 326 cos~;
#X obj 100 296 +~ 0.75;
#X obj 31 627 *~;
#X obj 46 589 r~ \$0-1_a0;
#X obj 180 474 s~ \$0-1_a0;
#X obj 31 540 *~ 0.5;
#X obj 133 623 sig~ 0;
#X obj 31 649 outlet~ b0/a0;
#X obj 133 648 outlet~ b1/a0;
#X obj 226 650 outlet~ b2/a0;
#X obj 31 518 r~ \$0-wsin;
#X obj 226 518 r~ \$0-wsin;
#X obj 226 540 *~ -0.5;
#X obj 226 624 *~;
#X obj 241 592 r~ \$0-1_a0;
#X obj 323 624 *~;
#X obj 338 592 r~ \$0-1_a0;
#X obj 416 625 *~;
#X obj 431 593 r~ \$0-1_a0;
#X obj 323 651 outlet~ a1/a0;
#X obj 416 653 outlet~ a2/a0;
#X obj 323 516 r~ \$0-wcos;
#X obj 30 474 s~ \$0-wcos;
#X obj 323 538 *~ -2;
#X obj 263 442 /~;
#X obj 431 542 r~ \$0-alpha;
#X obj 416 514 sig~ 1;
#X obj 416 568 -~;
#X obj 100 474 s~ \$0-wsin;
#X obj 180 70 inlet~;
#X obj 30 70 inlet~ freq;
#X connect 7 0 21 0;
#X connect 7 0 23 0;
#X connect 8 0 17 0;
#X connect 17 0 18 0;
#X connect 17 0 19 1;
#X connect 17 0 50 1;
#X connect 18 0 30 0;
#X connect 19 0 18 1;
#X connect 20 0 48 0;
#X connect 21 0 22 0;
#X connect 22 0 25 0;
#X connect 23 0 22 1;
#X connect 24 0 7 0;
#X connect 25 0 20 0;
#X connect 25 0 27 0;
#X connect 26 0 19 0;
#X connect 26 0 50 0;
#X connect 26 0 54 0;
#X connect 27 0 26 0;
#X connect 28 0 33 0;
#X connect 29 0 28 1;
#X connect 31 0 28 0;
#X connect 32 0 34 0;
#X connect 36 0 31 0;
#X connect 37 0 38 0;
#X connect 38 0 39 0;
#X connect 39 0 35 0;
#X connect 40 0 39 1;
#X connect 41 0 45 0;
#X connect 42 0 41 1;
#X connect 43 0 46 0;
#X connect 44 0 43 1;
#X connect 47 0 49 0;
#X connect 49 0 41 0;
#X connect 50 0 9 0;
#X connect 51 0 53 1;
#X connect 52 0 53 0;
#X connect 53 0 43 0;
#X connect 55 0 8 0;
#X connect 56 0 24 0;
